<svg xmlns="http://www.w3.org/2000/svg" width="219.93" height="215.66" viewBox="0 0 219.93 215.66">
  <path id="Path_540" data-name="Path 540" d="M638.29,3407.78h-5.5v-59.65h5.5c8.07,0,8.385,0,25.9-14.5,3.061-2.539,6.439-5.334,10.219-8.39l78.909-73.463H644.75v-59.66H852.72v207.97H793.06v-103.8l-78.913,73.444-1.431,1.247c-3.989,3.229-7.4,6.044-10.486,8.6C682.459,3395.954,668.176,3407.78,638.29,3407.78Zm5.5-48.884v37.736c22.182-1.308,33.514-10.691,51.422-25.519,3.113-2.581,6.561-5.425,10.44-8.561l1.141-1,97.266-90.53V3389.09h37.66V3203.12H655.75v37.66H781.281l-99.664,92.766c-4.029,3.275-7.372,6.041-10.406,8.557C656.136,3354.579,651.613,3358.063,643.79,3358.9Z" transform="translate(-632.79 -3192.12)" fill="#fdbcb8"/>
</svg>
