<?xml version="1.0" encoding="UTF-8"?>
<svg id="Layer_2" data-name="Layer 2" xmlns="http://www.w3.org/2000/svg" viewBox="0 0 139 40.12">
  <defs>
    <style>
      .cls-1 {
        fill: #e14125;
      }

      .cls-2 {
        fill: #111a21;
      }
    </style>
  </defs>
  <g id="Layer_1-2" data-name="Layer 1">
    <g>
      <g>
        <g>
          <g>
            <path class="cls-2" d="M3.02,37.91H1.35l-.29,.85H0l1.61-4.18h1.29l1.61,4.18h-1.21l-.29-.85Zm-.22-.65l-.62-1.83h-.01l-.61,1.83h1.24Z"/>
            <path class="cls-2" d="M8.27,39.02c0,.72-.64,1.1-1.73,1.1s-1.76-.31-1.76-.83c0-.33,.22-.53,.56-.57h0c-.19-.13-.29-.3-.29-.52,0-.3,.15-.48,.39-.59h0c-.33-.2-.51-.51-.51-.91,0-.7,.55-1.12,1.47-1.12,.37,0,.67,.06,.91,.19h0c-.13-.13-.18-.25-.18-.37,0-.26,.26-.41,.66-.41,.17,0,.26,.01,.35,.03v.61c-.06-.01-.12-.02-.19-.02-.2,0-.3,.09-.3,.24,0,.08,.03,.17,.07,.29,.1,.16,.15,.35,.15,.57,0,.7-.55,1.12-1.47,1.12-.19,0-.36-.02-.52-.05-.03,.04-.06,.11-.06,.2,0,.14,.11,.22,.3,.22h1.02c.71,0,1.13,.31,1.13,.83Zm-.96,.13c0-.17-.13-.27-.41-.27h-.74c-.26,0-.41,.11-.41,.29,0,.24,.29,.36,.79,.36s.77-.13,.77-.38Zm-1.47-2.46c0,.32,.21,.51,.56,.51s.56-.19,.56-.51-.21-.51-.56-.51-.56,.19-.56,.51Z"/>
          </g>
          <g>
            <path class="cls-2" d="M8.38,40.03v-.72c.14,.03,.25,.04,.41,.04,.35,0,.5-.2,.5-.54v-3.18h.96v3.23c0,.78-.44,1.24-1.17,1.24-.41,0-.62-.04-.7-.06Zm.91-5.5h.97v.77h-.97v-.77Z"/>
            <path class="cls-2" d="M13.9,37.38h-2.23c.04,.51,.3,.74,.74,.74,.37,0,.62-.13,.64-.44h.85c-.02,.72-.62,1.14-1.51,1.14-1.04,0-1.69-.59-1.69-1.59s.65-1.65,1.71-1.65c.88,0,1.49,.5,1.49,1.53v.27Zm-.85-.57c0-.36-.24-.54-.64-.54s-.63,.18-.71,.59h1.35v-.05Z"/>
            <path class="cls-2" d="M14.32,35.63h.96l-.04,.83h.01c.16-.6,.53-.88,1.24-.88,.76,0,1.24,.41,1.24,1.23v1.96h-.96v-1.75c0-.44-.25-.64-.68-.64-.51,0-.81,.3-.81,.89v1.49h-.96v-3.14Z"/>
            <path class="cls-2" d="M18.14,37.2c0-1.02,.67-1.62,1.63-1.62s1.52,.51,1.52,1.38h-.85c0-.41-.25-.65-.64-.65-.45,0-.7,.31-.7,.88s.25,.88,.68,.88,.66-.24,.67-.63h.85c0,.9-.64,1.37-1.57,1.37s-1.59-.6-1.59-1.61Z"/>
            <path class="cls-2" d="M21.74,34.53h.96v.77h-.96v-.77Zm0,1.1h.96v3.14h-.96v-3.14Z"/>
            <path class="cls-2" d="M23.18,37.86c0-.51,.37-.89,1.2-.89h1.02v-.21c0-.38-.22-.53-.66-.53-.36,0-.57,.15-.57,.41,0,.02,0,.07,0,.13h-.89c0-.05-.01-.12-.01-.18,0-.63,.56-1.01,1.51-1.01s1.58,.44,1.58,1.28v1.9h-.96c.02-.16,.04-.44,.04-.63h0c-.1,.44-.45,.69-1.02,.69-.73,0-1.24-.32-1.24-.95Zm2.22-.3v-.06h-.93c-.26,0-.42,.12-.42,.3,0,.24,.21,.37,.56,.37,.5,0,.79-.22,.79-.6Z"/>
          </g>
          <g>
            <path class="cls-2" d="M28.31,34.59h1.04v2.07h.01l1.8-2.07h1.24l-1.71,1.89,1.83,2.28h-1.35l-1.19-1.63-.63,.67v.96h-1.04v-4.18Z"/>
            <path class="cls-2" d="M32.77,37.2c0-1.02,.67-1.62,1.71-1.62s1.71,.6,1.71,1.62-.67,1.61-1.71,1.61-1.71-.6-1.71-1.61Zm2.45,0c0-.56-.27-.89-.74-.89s-.74,.33-.74,.89,.27,.88,.74,.88,.74-.32,.74-.88Z"/>
          </g>
          <g>
            <path class="cls-2" d="M36.36,35.63h.96l-.03,.81h0c.15-.54,.5-.86,1.07-.86,.6,0,.99,.31,1.06,.82h0c.13-.51,.47-.82,1.07-.82,.69,0,1.07,.43,1.07,1.17v2.02h-.96v-1.8c0-.37-.19-.59-.52-.59-.38,0-.65,.29-.65,.87v1.52h-.96v-1.8c0-.37-.19-.59-.52-.59-.37,0-.64,.3-.64,.89v1.5h-.96v-3.14Z"/>
            <path class="cls-2" d="M42.98,38.17h0c0,.18,.02,.44,.03,.59h-.96v-4.4h.96v1.31c0,.15-.01,.41-.02,.56h.01c.12-.41,.52-.66,1.08-.66,.89,0,1.42,.58,1.42,1.56,0,1.06-.53,1.68-1.43,1.68-.57,0-.98-.24-1.09-.64Zm1.56-1.01c0-.53-.27-.85-.72-.85-.51,0-.81,.32-.81,.86v.15c0,.48,.3,.76,.82,.76,.44,0,.71-.34,.71-.91Z"/>
            <path class="cls-2" d="M49.07,37.38h-2.23c.04,.51,.3,.74,.74,.74,.37,0,.62-.13,.64-.44h.85c-.02,.72-.62,1.14-1.51,1.14-1.04,0-1.69-.59-1.69-1.59s.65-1.65,1.71-1.65c.88,0,1.49,.5,1.49,1.53v.27Zm-1.76-2.08h-.86v-.77h.86v.77Zm.91,1.52c0-.36-.24-.54-.64-.54s-.63,.18-.71,.59h1.35v-.05Zm.38-1.52h-.86v-.77h.86v.77Z"/>
            <path class="cls-2" d="M49.76,37.68v-1.31h-.46v-.75h.37c.15,0,.2-.08,.22-.27l.04-.44h.79v.71h1v.75h-1v1.26c0,.32,.15,.43,.53,.43,.13,0,.33-.02,.44-.05v.73c-.08,.02-.35,.07-.61,.07-.98,0-1.33-.43-1.33-1.13Z"/>
          </g>
          <g>
            <path class="cls-2" d="M52.01,37.86c0-.51,.37-.89,1.2-.89h1.02v-.21c0-.38-.22-.53-.66-.53-.36,0-.57,.15-.57,.41,0,.02,0,.07,0,.13h-.89c0-.05-.01-.12-.01-.18,0-.63,.56-1.01,1.51-1.01s1.58,.44,1.58,1.28v1.9h-.96c.02-.16,.04-.44,.04-.63h0c-.1,.44-.45,.69-1.02,.69-.73,0-1.24-.32-1.24-.95Zm2.22-.3v-.06h-.93c-.26,0-.42,.12-.42,.3,0,.24,.21,.37,.56,.37,.5,0,.79-.22,.79-.6Z"/>
            <path class="cls-2" d="M55.64,35.63h.96l-.04,.9h.01c.13-.6,.47-.95,1.08-.95s1.02,.41,1.02,1.23c0,.18-.02,.46-.03,.62h-.88c.01-.15,.02-.31,.02-.41,0-.46-.18-.64-.49-.64-.41,0-.7,.34-.7,1.03v1.35h-.96v-3.14Z"/>
            <path class="cls-2" d="M62.23,37.38h-2.23c.04,.51,.3,.74,.74,.74,.37,0,.62-.13,.64-.44h.85c-.02,.72-.62,1.14-1.51,1.14-1.04,0-1.69-.59-1.69-1.59s.65-1.65,1.71-1.65c.88,0,1.49,.5,1.49,1.53v.27Zm-.85-.57c0-.36-.24-.54-.64-.54s-.63,.18-.71,.59h1.35v-.05Z"/>
            <path class="cls-2" d="M67.25,37.38h-2.23c.04,.51,.3,.74,.74,.74,.37,0,.62-.13,.64-.44h.85c-.02,.72-.62,1.14-1.51,1.14-1.04,0-1.69-.59-1.69-1.59s.65-1.65,1.71-1.65c.88,0,1.49,.5,1.49,1.53v.27Zm-.85-.57c0-.36-.24-.54-.64-.54s-.63,.18-.71,.59h1.35v-.05Z"/>
            <path class="cls-2" d="M69.18,34.59h1.8c1.07,0,1.71,.5,1.71,1.51,0,.93-.52,1.47-1.61,1.47h-.85v1.19h-1.04v-4.18Zm1.85,2.28c.44,0,.68-.24,.68-.72s-.27-.74-.76-.74h-.72v1.47h.81Z"/>
            <path class="cls-2" d="M73.03,37.49v-1.86h.96v1.75c0,.44,.24,.64,.65,.64,.52,0,.83-.34,.83-1.03v-1.36h.96v3.14h-.96c.02-.22,.04-.48,.04-.82h-.01c-.14,.6-.57,.87-1.16,.87-.81,0-1.32-.41-1.32-1.33Z"/>
            <path class="cls-2" d="M76.94,35.63h.96l-.04,.83h.01c.16-.6,.53-.88,1.24-.88,.76,0,1.24,.41,1.24,1.23v1.96h-.96v-1.75c0-.44-.25-.64-.68-.64-.51,0-.81,.3-.81,.89v1.49h-.96v-3.14Z"/>
            <path class="cls-2" d="M83.94,37.38h-2.23c.05,.51,.31,.74,.74,.74,.37,0,.62-.13,.64-.44h.85c-.02,.72-.62,1.14-1.51,1.14-1.04,0-1.69-.59-1.69-1.59s.65-1.65,1.71-1.65c.88,0,1.49,.5,1.49,1.53v.27Zm-1.76-2.08h-.86v-.77h.86v.77Zm.91,1.52c0-.36-.24-.54-.64-.54s-.63,.18-.71,.59h1.35v-.05Zm.38-1.52h-.86v-.77h.86v.77Z"/>
            <path class="cls-2" d="M84.31,37.71h.86c0,.29,.15,.48,.7,.48,.5,0,.68-.15,.68-.37,0-.11-.06-.2-.22-.24s-.42-.06-.73-.09c-.45-.04-.8-.11-.99-.24-.18-.13-.3-.36-.3-.62,0-.68,.7-1.05,1.57-1.05,1.03,0,1.5,.39,1.5,1.12h-.85c0-.33-.16-.5-.64-.5-.43,0-.62,.15-.62,.36,0,.13,.05,.23,.23,.28,.16,.04,.44,.06,.77,.1,.39,.04,.66,.08,.89,.21,.2,.12,.35,.35,.35,.62,0,.66-.56,1.05-1.64,1.05s-1.57-.47-1.57-1.1Z"/>
            <path class="cls-2" d="M87.96,34.53h.96v.77h-.96v-.77Zm0,1.1h.96v3.14h-.96v-3.14Z"/>
            <path class="cls-2" d="M89.43,35.63h.96l-.03,.81h0c.15-.54,.5-.86,1.07-.86,.6,0,.99,.31,1.06,.82h0c.13-.51,.47-.82,1.07-.82,.69,0,1.07,.43,1.07,1.17v2.02h-.97v-1.8c0-.37-.19-.59-.52-.59-.38,0-.65,.29-.65,.87v1.52h-.96v-1.8c0-.37-.19-.59-.52-.59-.37,0-.64,.3-.64,.89v1.5h-.96v-3.14Z"/>
            <path class="cls-2" d="M95.13,34.53h.96v.77h-.96v-.77Zm0,1.1h.96v3.14h-.96v-3.14Z"/>
            <path class="cls-2" d="M96.87,37.68v-1.31h-.46v-.75h.37c.15,0,.2-.08,.22-.27l.05-.44h.79v.71h1v.75h-1v1.26c0,.32,.15,.43,.53,.43,.13,0,.33-.02,.44-.05v.73c-.08,.02-.35,.07-.61,.07-.98,0-1.33-.43-1.33-1.13Z"/>
            <path class="cls-2" d="M100.64,37.17c0-.96,.6-1.59,1.51-1.59,.51,0,.84,.19,.98,.51h0v-1.73h.97v4.4h-.97c0-.06,.02-.34,.04-.67h-.01c-.12,.44-.48,.72-1.05,.72-.91,0-1.47-.66-1.47-1.64Zm2.49,.05v-.15c0-.45-.32-.76-.79-.76s-.75,.34-.75,.86,.29,.9,.74,.9c.48,0,.8-.34,.8-.86Z"/>
            <path class="cls-2" d="M104.6,34.37h.96v1.38c0,.12-.02,.48-.04,.71h.01c.16-.6,.53-.88,1.24-.88,.76,0,1.24,.41,1.24,1.23v1.96h-.96v-1.75c0-.44-.25-.64-.68-.64-.51,0-.81,.3-.81,.89v1.49h-.96v-4.4Z"/>
            <path class="cls-2" d="M111.61,37.38h-2.23c.04,.51,.3,.74,.74,.74,.37,0,.62-.13,.64-.44h.85c-.02,.72-.62,1.14-1.51,1.14-1.04,0-1.69-.59-1.69-1.59s.65-1.65,1.71-1.65c.88,0,1.49,.5,1.49,1.53v.27Zm-.85-.57c0-.36-.24-.54-.64-.54s-.64,.18-.71,.59h1.35v-.05Z"/>
          </g>
          <g>
            <path class="cls-2" d="M116.38,37.91h-1.67l-.29,.85h-1.07l1.61-4.18h1.29l1.61,4.18h-1.21l-.29-.85Zm-.22-.65l-.62-1.83h-.01l-.61,1.83h1.24Z"/>
            <path class="cls-2" d="M118.49,36.38h-.46v-.75h.46v-.3c0-.72,.53-1.09,1.24-1.09,.32,0,.59,.07,.67,.1v.71c-.08-.03-.25-.08-.48-.08-.32,0-.47,.15-.47,.43v.24h1v.75h-1v2.39h-.97v-2.39Z"/>
          </g>
          <path class="cls-2" d="M121.02,37.68v-1.31h-.46v-.75h.37c.15,0,.2-.08,.22-.27l.04-.44h.79v.71h1v.75h-1v1.26c0,.32,.15,.43,.53,.43,.13,0,.33-.02,.44-.05v.73c-.08,.02-.35,.07-.61,.07-.98,0-1.33-.43-1.33-1.13Z"/>
          <g>
            <path class="cls-2" d="M126.4,37.38h-2.23c.04,.51,.3,.74,.74,.74,.37,0,.62-.13,.64-.44h.85c-.02,.72-.62,1.14-1.51,1.14-1.04,0-1.69-.59-1.69-1.59s.65-1.65,1.71-1.65c.88,0,1.49,.5,1.49,1.53v.27Zm-1.76-2.08h-.86v-.77h.86v.77Zm.91,1.52c0-.36-.24-.54-.64-.54s-.64,.18-.71,.59h1.35v-.05Zm.38-1.52h-.86v-.77h.86v.77Z"/>
            <path class="cls-2" d="M126.77,37.71h.86c0,.29,.15,.48,.7,.48,.5,0,.68-.15,.68-.37,0-.11-.06-.2-.22-.24s-.42-.06-.73-.09c-.45-.04-.8-.11-.99-.24-.18-.13-.3-.36-.3-.62,0-.68,.7-1.05,1.57-1.05,1.03,0,1.5,.39,1.5,1.12h-.85c0-.33-.16-.5-.64-.5-.43,0-.62,.15-.62,.36,0,.13,.05,.23,.23,.28,.16,.04,.44,.06,.77,.1,.39,.04,.66,.08,.89,.21,.2,.12,.35,.35,.35,.62,0,.66-.56,1.05-1.64,1.05s-1.57-.47-1.57-1.1Z"/>
            <path class="cls-2" d="M130.42,34.53h.96v.77h-.96v-.77Zm0,1.1h.96v3.14h-.96v-3.14Z"/>
          </g>
          <g>
            <path class="cls-2" d="M131.76,35.63h1.12l.81,2.25h.01l.83-2.25h.99l-1.3,3.14h-1.15l-1.31-3.14Z"/>
            <path class="cls-2" d="M139,37.38h-2.23c.05,.51,.31,.74,.74,.74,.37,0,.62-.13,.64-.44h.85c-.02,.72-.62,1.14-1.51,1.14-1.04,0-1.69-.59-1.69-1.59s.65-1.65,1.71-1.65c.88,0,1.49,.5,1.49,1.53v.27Zm-.85-.57c0-.36-.24-.54-.64-.54s-.63,.18-.71,.59h1.35v-.05Z"/>
          </g>
        </g>
        <polygon class="cls-2" points="76.37 31.57 58.91 14 51.9 21 62.44 31.57 76.37 31.57"/>
        <path class="cls-2" d="M17.58,8.54h.14l3.46,12.04h-7.1l3.5-12.04ZM11.97,0L.6,31.57H10.91l1.63-5.66h10.17l1.63,5.66h12.23L25.21,0H11.97Z"/>
        <path class="cls-2" d="M94.03,16.74c2.64,0,4.13-1.3,4.13-4.41,0-2.93-1.58-4.46-4.51-4.46h-3.98v8.88h4.37ZM79.34,0h14.34c8.88,0,13.62,3.79,13.62,11.51,0,7.15-3.79,11.23-12.71,11.23h-4.94v8.83h-10.32V0Z"/>
        <path class="cls-2" d="M119.98,8.54h.14l3.46,12.04h-7.1l3.5-12.04ZM114.37,0l-11.37,31.57h10.32l1.63-5.66h10.17l1.63,5.66h12.23L127.61,0h-13.24Z"/>
      </g>
      <polygon class="cls-1" points="62.44 .14 49.42 13.23 49.42 7.15 39.06 7.15 39.06 31.57 45.17 31.57 76.37 .14 62.44 .14"/>
    </g>
  </g>
</svg>