<svg xmlns="http://www.w3.org/2000/svg" width="54" height="54" viewBox="0 0 54 54">
  <g id="argetim" transform="translate(1836 17892)">
    <path id="Path_713" data-name="Path 713" d="M27,1A26.007,26.007,0,0,0,16.88,50.957,26.007,26.007,0,0,0,37.12,3.043,25.836,25.836,0,0,0,27,1m0-1A27,27,0,1,1,0,27,27,27,0,0,1,27,0Z" transform="translate(-1836 -17892)" fill="#fff"/>
    <path id="local_activity_FILL1_wght300_GRAD0_opsz24" d="M110.364-763.865l3.571-2.713,3.5,2.685-1.343-4.338,3.627-2.832H115.35l-1.416-4.366-1.416,4.366h-4.366l3.554,2.832ZM102.652-758a2.554,2.554,0,0,1-1.874-.777A2.554,2.554,0,0,1,100-760.65v-4.019a1.046,1.046,0,0,1,.207-.64,1.03,1.03,0,0,1,.554-.381,3.818,3.818,0,0,0,1.568-1.331,3.424,3.424,0,0,0,.6-1.977,3.424,3.424,0,0,0-.6-1.977,3.818,3.818,0,0,0-1.568-1.331,1.03,1.03,0,0,1-.554-.381,1.046,1.046,0,0,1-.207-.64v-4.019a2.554,2.554,0,0,1,.777-1.874,2.554,2.554,0,0,1,1.874-.777h22.564a2.554,2.554,0,0,1,1.874.777,2.554,2.554,0,0,1,.777,1.874v4.019a1.046,1.046,0,0,1-.207.64,1.03,1.03,0,0,1-.554.381,3.818,3.818,0,0,0-1.568,1.331,3.424,3.424,0,0,0-.6,1.977,3.424,3.424,0,0,0,.6,1.977,3.817,3.817,0,0,0,1.568,1.331,1.03,1.03,0,0,1,.554.381,1.046,1.046,0,0,1,.207.64v4.019a2.554,2.554,0,0,1-.777,1.874,2.554,2.554,0,0,1-1.874.777Z" transform="translate(-1923.001 -17096.002)" fill="#fff"/>
  </g>
</svg>
