<svg xmlns="http://www.w3.org/2000/svg" width="231.517" height="236.342" viewBox="0 0 231.517 236.342">
  <path id="arrow-down" d="M452.08,2004.251a81.661,81.661,0,0,0,1.941,14.75,66.906,66.906,0,0,0,5.749,15.669c5.074,9.891,12.329,18.657,21.513,29.755,2.849,3.441,6.075,7.338,9.623,11.731l1.151,1.324,100.589,108.071H460.671v45.043H673.486V2017.778H628.443V2157.9L525.506,2047.305l-.108-.134c-3.4-4.194-6.512-7.963-9.412-11.465-14.684-17.742-18.141-22.242-18.823-31.455H452.08m-5.111-5h55.043c0,11.182.833,12.736,17.825,33.267,2.862,3.456,6,7.256,9.446,11.506l94.16,101.161V2012.778h55.043v222.815H455.671v-55.043h125.49l-92.822-99.726-1.267-1.458c-3.528-4.37-6.736-8.245-9.641-11.754C459.087,2045.448,446.969,2030.8,446.969,1999.251Z" transform="translate(-446.969 -1999.252)" fill="#fe4b00"/>
</svg>
