<svg xmlns="http://www.w3.org/2000/svg" width="30.637" height="30.223" viewBox="0 0 30.637 30.223">
  <g id="black-ekspozitë" transform="translate(0)">
    <path id="Path_622" data-name="Path 622" d="M437.808.235c1.288.277,2.664.589,4.048.86a2.529,2.529,0,0,0,1.046-.025c1.328-.32,2.641-.7,3.97-1.014a2.563,2.563,0,0,1,1.049,0,10.07,10.07,0,0,1,1.817.478,8.04,8.04,0,0,0,5.568.079,11.8,11.8,0,0,1,1.572-.353c.9-.152,1.489.411,1.173,1.241a8.3,8.3,0,0,0,.328,6.8,1.609,1.609,0,0,1,0,1.022,21.2,21.2,0,0,1-.79,2.355,3.13,3.13,0,0,0-.076,2.217c.227.725.372,1.476.543,2.218.2.885-.276,1.42-1.174,1.248-1.341-.256-2.67-.578-4.011-.843a2.176,2.176,0,0,0-.912.021c-1.326.326-2.639.705-3.969,1.018a2.966,2.966,0,0,1-1.176,0A9.558,9.558,0,0,1,445,17.076,7.825,7.825,0,0,0,439.57,17a11.938,11.938,0,0,1-1.64.357c-.921.154-1.393-.327-1.2-1.239.212-.985.484-1.957.69-2.943a1.9,1.9,0,0,0-.041-.9c-.3-.985-.67-1.949-.958-2.937a3.625,3.625,0,0,1-.013-1.032.461.461,0,0,1,.055-.193,7.729,7.729,0,0,0,.316-6.462c-.328-.89.119-1.454,1.025-1.412M447.352,13.7h7.065c.983,0,1.007-.025,1.008-1.037q0-3.87,0-7.739c0-.958-.046-1.007-.973-1.008q-7.066,0-14.131,0c-.872,0-.932.06-.932.9q0,4,0,8.008c0,.812.062.87.894.871q3.532,0,7.065,0" transform="translate(-432.173 0)" fill="#FE4B00"/>
    <path id="Path_623" data-name="Path 623" d="M449.64,51.253c-1.017-1.031-1.115-2.095-.291-2.91a1.825,1.825,0,0,1,2.6.015c.787.8.67,1.9-.352,2.936a4.278,4.278,0,0,0,3.265,2.273c.155.023.345-.027.463.047a3.611,3.611,0,0,1,.529.487c-.191.142-.382.4-.574.407a4.988,4.988,0,0,1-3.656-1.591c-.141-.141-.27-.294-.476-.52v5.69h.733c1.212,0,2.424-.009,3.635.006.374,0,.938-.143.92.469s-.58.4-.951.444a.546.546,0,0,1-.068,0q-14.3,0-28.609-.008c-.384,0-1,.2-1.009-.442s.6-.456.988-.462c1.387-.02,2.775-.008,4.222-.008V53c-.2.182-.351.321-.5.462a5.115,5.115,0,0,1-3.308,1.467c-.329.017-.737.088-.769-.407s.359-.487.7-.522a4.129,4.129,0,0,0,3.629-2.569c-1.232-1.213-1.4-2.213-.514-3.085a1.838,1.838,0,0,1,2.648.063c.794.868.608,1.986-.483,2.9a4.073,4.073,0,0,0,3.67,2.662,4.228,4.228,0,0,0,4.15-2.618c-1.132-1.016-1.309-2.079-.49-2.952a1.834,1.834,0,0,1,2.649-.048c.8.8.682,1.916-.308,2.883a4.027,4.027,0,0,0,3.6,2.364,4.148,4.148,0,0,0,3.955-2.343m.485,1.159c-2.684,2.813-5.128,2.814-8.53.089v5.545h8.53Zm-18.072.421v5.211h8.5V52.829a5.4,5.4,0,0,1-8.5,0" transform="translate(-425.798 -28.807)" fill="#FE4B00"/>
    <path id="Path_624" data-name="Path 624" d="M453.831,19.643l-1.412-3.568c-.513-1.3-.58-1.311-1.6-.406q-1.89,1.671-3.786,3.335c-.18.158-.37.305-.634.521V12.269h14.1v6.962c-.931-.88-1.885-1.778-2.835-2.679-.179-.17-.352-.347-.519-.528-.376-.408-.679-.327-.967.11-.751,1.139-1.513,2.271-2.34,3.51" transform="translate(-438.209 -7.393)" fill="#FE4B00"/>
    <path id="Path_625" data-name="Path 625" d="M452.667,22.368,454.19,26.2h-5.868l4.345-3.832" transform="translate(-439.37 -13.478)" fill="#FE4B00"/>
    <path id="Path_626" data-name="Path 626" d="M467.083,27.5l1.993-2.993L472.23,27.5Z" transform="translate(-450.675 -14.77)" fill="#FE4B00"/>
  </g>
</svg>
