<svg id="black-teatër" xmlns="http://www.w3.org/2000/svg" width="32.695" height="32.693" viewBox="0 0 32.695 32.693">
  <path id="Path_620" data-name="Path 620" d="M296.8,53.4c-1.437-.105-2.073-1.183-2.689-2.253a13.258,13.258,0,0,1-1.46-8.353,27.533,27.533,0,0,1,3.7-10.44,1.859,1.859,0,0,1,.911-.736,8.119,8.119,0,0,1,5.27-.01,18.943,18.943,0,0,1,9.25,5.694,8.2,8.2,0,0,1,1.727,3.458v.726c-.625.971-1.222,1.962-1.878,2.911-2.186,3.155-4.726,5.967-8.268,7.616a34.2,34.2,0,0,1-4.385,1.389Zm8.415-7.249a12.455,12.455,0,0,1-8.361-4.651,8.383,8.383,0,0,0,.262,5.538,3.119,3.119,0,0,0,3.2,1.8,9.186,9.186,0,0,0,4.9-2.683m2.75-1.953c-.436-3.051-1.772-4.088-4.292-3.062l4.292,3.062m-5.992-3.99c-.561-2.56-1.8-3.442-4.779-2.141l4.779,2.141" transform="translate(-280.814 -20.704)" fill="#033e3c"/>
  <path id="Path_621" data-name="Path 621" d="M283.559,10.043c.805.229,1.62.429,2.413.7a2.273,2.273,0,0,1,1.64,1.755c.417,1.933.878,3.857,1.305,5.788a4.863,4.863,0,0,1,.055.8l-4.556.543,1.229-.853a9.231,9.231,0,0,0-4.854-.6,2.713,2.713,0,0,0,2.822,2.118c-.589,1.167-1.172,2.358-1.8,3.529a1.25,1.25,0,0,1-.6.522,6.46,6.46,0,0,0-3.242,2.562c-.263.417-.458.886.062,1.205s.778-.1,1.079-.5a7.254,7.254,0,0,1,1.661-1.561L279.3,31.833a12.573,12.573,0,0,1-3.713-2.514,25.456,25.456,0,0,1-6.141-9.889c-.178-.469-.374-.931-.561-1.4v-.582a8.534,8.534,0,0,1,2.7-3.6,16.164,16.164,0,0,1,5.378-2.777c1.4-.425,2.846-.692,4.272-1.03ZM278.037,19a9.832,9.832,0,0,0-3.456,3.423c1.051.1,2.092.471,2.9-.29.873-.825.793-1.944.557-3.132" transform="translate(-268.883 -10.043)" fill="#033e3c"/>
</svg>
