<svg id="black-sport" xmlns="http://www.w3.org/2000/svg" width="35.71" height="19.248" viewBox="0 0 35.71 19.248">
  <path id="Path_632" data-name="Path 632" d="M701.141,33.011c.205-.746.347-1.5.618-2.2a8.337,8.337,0,0,1,10.624-4.8,11.088,11.088,0,0,1,1.062.472.264.264,0,0,0,.335-.028,8.127,8.127,0,0,1,4.364-1.744,8.333,8.333,0,0,1,2.109,16.524,8.005,8.005,0,0,1-5.184-.841.323.323,0,0,0-.412.029,8.271,8.271,0,0,1-6.428,1.644.4.4,0,0,0-.478.216,3.443,3.443,0,0,1-5.82.066.413.413,0,0,0-.429-.211,9.561,9.561,0,0,1-9.877-7.856,1.909,1.909,0,0,1,1.481-2.389,9.7,9.7,0,0,1,7.924,1.055c.05.03.1.059.113.066m2.545,4.172a8.513,8.513,0,0,0-5.167-4.428c-1.6-.509-4.643-.449-5.41.1l1.536.552-.241.5c-.242-.082-.453-.155-.665-.224s-.439-.147-.663-.2c-.61-.157-.779.007-.6.611.193.642.4,1.282.634,1.91a8.372,8.372,0,0,0,8.013,5.283c.1,0,.2-.019.3-.03a3.549,3.549,0,0,1,2.259-4.069m5.956-6.71h-.016c0,.179,0,.358,0,.537a.6.6,0,0,0,.272.53q1.156.824,2.3,1.66a.561.561,0,0,0,.626.059c.626-.3,1.255-.589,1.884-.88a.61.61,0,0,0,.366-.449c.151-.73.314-1.457.441-2.191a.75.75,0,0,0-.119-.52,6.833,6.833,0,0,0-2.923-2.249.552.552,0,0,0-.421.019c-.728.393-1.443.809-2.164,1.215a.457.457,0,0,0-.251.438c0,.61,0,1.221,0,1.831m-.213-1.263h-.023c0-.164-.009-.329,0-.492a.515.515,0,0,0-.293-.53q-1.036-.577-2.067-1.163a.541.541,0,0,0-.529-.026,7.436,7.436,0,0,0-2.83,2.171.676.676,0,0,0-.145.6q.225,1.039.443,2.079a.7.7,0,0,0,.408.525q.96.456,1.917.918a.416.416,0,0,0,.462-.039q1.219-.891,2.442-1.778a.477.477,0,0,0,.215-.416c0-.618,0-1.236,0-1.854M717,34.524a.925.925,0,0,0-.148-.29c-.522-.531-1.057-1.051-1.588-1.574a.38.38,0,0,0-.47-.076c-.666.317-1.337.624-2,.953a.631.631,0,0,0-.294.312q-.506,1.422-.97,2.857a.48.48,0,0,0,.067.39c.409.493.834.973,1.271,1.442a.469.469,0,0,0,.351.119q1.042-.13,2.079-.3a.593.593,0,0,0,.347-.205A7.276,7.276,0,0,0,717,34.524m6.363-1.414a.592.592,0,0,0,.019-.1,10.28,10.28,0,0,1,.845-4.357.391.391,0,0,0-.118-.46,6.98,6.98,0,0,0-3.851-2.124c-.232-.045-.465-.075-.763-.123a14.743,14.743,0,0,1,1.823,7.165ZM708.21,41.19a7.161,7.161,0,0,0,3.061-.087.658.658,0,0,0,.35-.29c.327-.534.628-1.084.943-1.624a.555.555,0,0,0-.067-.7q-.4-.482-.789-.972a1.272,1.272,0,0,0-1.071-.5c-.82.011-1.64.019-2.459.043a.75.75,0,0,0-.436.131,8.15,8.15,0,0,0-.644.671,3.506,3.506,0,0,1,1.113,3.331m11.389-1.2a2.262,2.262,0,0,0,.229,0,6.838,6.838,0,0,0,4.607-2.568.344.344,0,0,0,.042-.413,10.831,10.831,0,0,1-.948-2.809c-.03-.151-.093-.19-.236-.188-.492.006-.984.007-1.475,0-.45-.01-.53.039-.6.494A16.906,16.906,0,0,1,720.01,39c-.144.317-.267.644-.41.991m-12.678-2.276c.16-.187.3-.36.45-.524a.533.533,0,0,0,.12-.577c-.3-.867-.588-1.737-.883-2.6a.858.858,0,0,0-.46-.521c-.632-.3-1.264-.6-1.894-.912a.379.379,0,0,0-.482.1c-.367.371-.735.742-1.108,1.106a1.961,1.961,0,0,1-.28.193c.1.1.131.142.168.178a9.5,9.5,0,0,1,1.858,2.531.5.5,0,0,0,.529.343,3.238,3.238,0,0,1,1.982.688m8.922,1.592c.021.033.025.05.036.057a1.324,1.324,0,0,0,.119.062,7.057,7.057,0,0,0,2.323.612.435.435,0,0,0,.493-.29c.26-.6.53-1.2.778-1.807a12.193,12.193,0,0,0,.837-3.692c.011-.139.015-.244-.178-.249-.5-.011-1-.036-1.5-.06a.162.162,0,0,0-.2.152c-.046.234-.1.467-.158.7a8.25,8.25,0,0,1-2.171,4.043,4.947,4.947,0,0,0-.385.473m.555-12.9c.3.4.6.762.846,1.16a9.536,9.536,0,0,1,1.43,5.28c0,.185.045.247.232.25.432.007.865.027,1.3.06.211.016.271-.06.271-.263a14.372,14.372,0,0,0-1.689-6.725.34.34,0,0,0-.337-.209,6.421,6.421,0,0,0-2.049.447M703.56,42.481l-.316-.221-.281.282a2.688,2.688,0,0,0,3.694-.018l-.276-.254-.317.209-.146-.176c.03-.168.319-.179.177-.418-.2-.336-.189-.343-.594-.3l-.072-.2c.105-.133.358-.077.306-.342-.071-.36-.056-.363-.437-.466-.028-.226-.024-.243.125-.257.121-.011.256,0,.256-.17s.191-.392-.1-.522c-.049-.022-.061-.125-.09-.191a1.507,1.507,0,0,1,.2-.064c.067-.012.175.022.2-.012a1.272,1.272,0,0,0,.237-.425c.016-.064-.12-.166-.186-.252a.3.3,0,0,1-.021-.057l.132-.155c.38.211.388.21.6-.091a2.653,2.653,0,0,0-3.667.031c.237.244.237.244.589.052l.169.205c-.339.158-.206.343-.093.576.13.268.3.088.471.1l.083.212c-.325.2-.3.2-.27.582.027.291.264.137.385.222.045.162.012.266-.182.257-.126-.006-.182.051-.206.179-.07.375-.072.383.271.6l-.089.2c-.392-.073-.5.013-.63.469l.256.218-.181.2m-.86-3.8c-.911.717-.9,2.932.006,3.563l.281-.24-.307-.238.212-.179.3.179.2-.376-.293-.178c.028-.338.278-.111.43-.183.018-.119.037-.246.055-.371-.382-.1-.382-.1-.313-.328l.327-.043-.081-.355c-.172-.035-.351-.021-.39-.088-.147-.251.21-.173.248-.348l-.2-.335-.3.211-.2-.252.317-.19-.285-.249m3.757.475-.214.383c.352.2.352.2.195.4l-.321-.081c-.023.156-.044.3-.066.447l.335.032v.252l-.347.052.091.418.33-.073c.24.311-.135.285-.217.432l.222.337.288-.185c.155.148.155.148-.063.474l.264.207c.9-.895.878-2.909-.031-3.564l-.245.215.253.27-.177.191-.3-.211m18.161-6.069c.432-.039.855-.07,1.276-.122.042,0,.107-.134.1-.2-.085-.589-.148-1.185-.29-1.761a12.2,12.2,0,0,0-.513-1.367,6.909,6.909,0,0,0-.571,3.446m.047.861c.024.094.036.158.056.221.16.513.318,1.026.486,1.535.024.072.1.126.148.188a.748.748,0,0,0,.127-.187c.166-.565.324-1.133.482-1.7a1.2,1.2,0,0,0,.019-.176l-1.318.119m-9.908-6.615a8.91,8.91,0,0,1,2.37,2.977,5.221,5.221,0,0,0-.246-.767,5.435,5.435,0,0,0-1.566-2.273c-.254-.2-.289-.2-.557.063" transform="translate(-691.568 -24.666)" fill="#FE4B00"/>
  <path id="Path_633" data-name="Path 633" d="M720.143,62.072l.285.249-.317.19.2.251.3-.211.2.335c-.037.175-.395.1-.248.348.039.067.218.053.39.087.016.07.046.2.081.356l-.326.043c-.069.232-.069.232.313.328l-.055.371c-.152.072-.4-.155-.43.183l.292.178-.2.375-.3-.178-.212.179.307.238-.281.24c-.91-.631-.917-2.845-.006-3.563" transform="translate(-709.012 -48.058)" fill="#033e3c"/>
  <path id="Path_634" data-name="Path 634" d="M730.61,62.562l.3.211.177-.191-.253-.27.245-.215c.909.655.93,2.669.031,3.564l-.264-.208c.218-.326.218-.326.063-.474l-.288.185-.222-.337c.081-.146.457-.12.217-.432l-.33.073c-.029-.135-.057-.262-.091-.417l.347-.053v-.252l-.335-.032c.022-.15.043-.29.066-.447l.321.081c.157-.2.157-.2-.2-.4l.214-.383" transform="translate(-715.722 -48.074)" fill="#033e3c"/>
  <path id="Path_635" data-name="Path 635" d="M707.173,50.089l.534-.85.5.3c-.145.245-.275.479-.419.7a.172.172,0,0,0,.047.277c.282.217.556.446.853.686l.487-.737.5.288c-.141.23-.258.455-.407.655a.35.35,0,0,0,.026.514c.125.137.227.294.36.47l-.475.335-.378-.495-.488.72-.471-.281.532-.931-.975-.848-.552.851-.481-.284.5-.873c-.375-.155-.729-.307-1.089-.444-.04-.015-.133.043-.166.091-.171.251-.331.51-.5.78l-.484-.308.414-.729-.574-.141c.015-.175.03-.342.047-.542a2.379,2.379,0,0,1,.32.045.638.638,0,0,0,.854-.357c.085-.155.173-.309.274-.488l.495.3-.434.774,1.165.519" transform="translate(-699.626 -39.568)" fill="#FE4B00"/>
</svg>
