<svg id="black-eventet-e-javës" xmlns="http://www.w3.org/2000/svg" width="22.864" height="23.822" viewBox="0 0 22.864 23.822">
  <path id="Path_639" data-name="Path 639" d="M1154.86,47.976v.2c-.016.161-.031.323-.05.483a4.751,4.751,0,0,1-3.634,4.036c-.311.071-.631.1-.948.141h-.223a1.082,1.082,0,0,0-.109-.016,4.637,4.637,0,0,1-2.478-.829.659.659,0,0,0-.4-.12q-6.975,0-13.949.008A1.023,1.023,0,0,1,1132,50.8q.019-7.219.007-14.439v-.194h21.9v.189q0,4.353,0,8.705a.532.532,0,0,0,.089.279,4.645,4.645,0,0,1,.725,1.633c.07.33.1.669.143,1m-4.761-3.725a3.808,3.808,0,1,0,3.8,3.829,3.814,3.814,0,0,0-3.8-3.829m-11.9-2.438.133.11q1.171.947,2.343,1.894a.169.169,0,0,1,.073.208c-.225.82-.443,1.641-.662,2.462-.052.2-.1.39-.162.616l.169-.106q1.254-.808,2.507-1.619a.181.181,0,0,1,.234,0q1.239.806,2.483,1.6l.18.114c-.011-.061-.016-.092-.024-.122q-.391-1.468-.784-2.934a.181.181,0,0,1,.066-.224q1.192-.955,2.377-1.919a.654.654,0,0,1,.091-.052.138.138,0,0,0-.082-.037c-1.035-.056-2.07-.113-3.106-.165a.163.163,0,0,1-.169-.125c-.3-.777-.6-1.552-.9-2.327-.08-.206-.162-.412-.253-.644-.041.1-.071.174-.1.247q-.528,1.365-1.055,2.729c-.027.069-.052.116-.142.12-.581.025-1.161.057-1.742.088-.481.026-.963.054-1.479.084" transform="translate(-1131.996 -29.01)" fill="#FE4B00"/>
  <path id="Path_640" data-name="Path 640" d="M1132.014,25.224v-.16q0-1.548,0-3.1a.922.922,0,0,1,1.012-1.012h2.792c0-.067,0-.121,0-.175.006-.311-.012-.625.023-.933a.91.91,0,0,1,.862-.792c.357-.015.716-.016,1.074,0a.951.951,0,0,1,.9.971c.005.255,0,.512,0,.767v.156h8.566V20.6c0-.2,0-.409,0-.614a.942.942,0,0,1,.909-.931c.344-.013.689-.013,1.032,0a.948.948,0,0,1,.91.96c0,.307,0,.613,0,.942h.168q1.332,0,2.664,0a.909.909,0,0,1,.975.952c.008,1.079,0,2.158,0,3.236,0,.023,0,.046-.006.079Zm5.7-5.209h-.936v2.837h.936Zm10.492,2.831h.93V20.01h-.93Z" transform="translate(-1132.006 -19.043)" fill="#FE4B00"/>
  <path id="Path_641" data-name="Path 641" d="M1173.628,59.39l.713.616-3.19,3.667-2.234-1.714.568-.761,1.573,1.189,2.569-3" transform="translate(-1153.487 -42.528)" fill="#FE4B00"/>
</svg>
