<svg xmlns="http://www.w3.org/2000/svg" width="34.577" height="30.982" viewBox="0 0 34.577 30.982">
  <g id="black-kinema" transform="translate(0)">
    <path id="Path_617" data-name="Path 617" d="M145.786,17.332a6.371,6.371,0,0,0,4.4-2.783.429.429,0,0,1,.405-.223c.654.012,1.308,0,1.963.005.463,0,.664.2.666.662,0,.539,0,1.078,0,1.618,0,.432.2.6.634.638a2.926,2.926,0,0,0,1.982-.542c1.534-1.027,3.116-1.984,4.675-2.974a.6.6,0,0,1,.665-.095.617.617,0,0,1,.287.611q0,6.352,0,12.7a.572.572,0,0,1-.271.563.591.591,0,0,1-.648-.06c-1.747-1.107-3.5-2.208-5.242-3.321a1.181,1.181,0,0,0-.744-.216c-.238.016-.477,0-.716,0a.551.551,0,0,0-.623.619c0,.548,0,1.1,0,1.644,0,.446-.2.644-.65.645-.468,0-.937,0-1.406,0s-.649.193-.654.641c0,.115.007.231,0,.344a.552.552,0,0,1-.535.525c-.07.006-.141,0-.212,0h-12.1c-.629,0-.785-.155-.787-.78,0-.555-.177-.735-.727-.733a11.494,11.494,0,0,1-3.318-.273,7.593,7.593,0,0,1-5.82-6.4,7.478,7.478,0,0,1,3.531-7.914,7.867,7.867,0,0,1,11.583,3.7c.1.25.283.34.622.306a1.136,1.136,0,1,0-.865-1.953.98.98,0,0,0-.121.17c-.311-.545-.567-1.07-.894-1.546s-.728-.907-1.108-1.372a1.081,1.081,0,0,0,.794-.765,1.625,1.625,0,0,0-.025-.774,1.082,1.082,0,0,0-1.2-.7c-.568.074-.915.5-.98,1.215-.435-.193-.87-.379-1.294-.585-.046-.022-.061-.171-.042-.25a6.4,6.4,0,0,1,2.144-3.515,6.581,6.581,0,1,1,6.9,11.045l-.263.114m-9.709-2.441a1.364,1.364,0,1,0,1.362-1.37,1.371,1.371,0,0,0-1.362,1.37M139.5,19.3a1.344,1.344,0,0,0,1.365-1.359A1.364,1.364,0,1,0,139.5,19.3m-3.763,2.949A1.362,1.362,0,1,0,137.1,23.6a1.356,1.356,0,0,0-1.369-1.352m3.061.664a1.362,1.362,0,1,0-1.364-1.36,1.352,1.352,0,0,0,1.364,1.36m-3.6-8.724a1.363,1.363,0,1,0-1.366,1.358,1.358,1.358,0,0,0,1.366-1.358m-4.4.7a1.359,1.359,0,1,0,1.353,1.37,1.36,1.36,0,0,0-1.353-1.37m2.7,8.017a1.349,1.349,0,0,0-1.363-1.36,1.365,1.365,0,1,0,1.363,1.36m-3.408-1.687a1.36,1.36,0,1,0-1.372-1.361,1.355,1.355,0,0,0,1.372,1.361M155.4,17.959l.024.053c.441-.085.882-.173,1.323-.256,1.179-.224,2.359-.444,3.537-.673.085-.016.224-.1.225-.151.015-.676.01-1.352.01-2.092l-5.12,3.12m-9.189-6.03a1.135,1.135,0,1,0,1.137-1.124,1.132,1.132,0,0,0-1.137,1.124m-.551,3.7a1.134,1.134,0,1,0-1.137-1.122,1.128,1.128,0,0,0,1.137,1.122m1.066-5.559a1.128,1.128,0,0,0,1.133-1.126,1.134,1.134,0,1,0-1.133,1.126M142.3,7.865a1.129,1.129,0,1,0-1.115,1.14,1.127,1.127,0,0,0,1.115-1.14m1.866.519a1.129,1.129,0,1,0-1.128-1.128,1.122,1.122,0,0,0,1.128,1.128" transform="translate(-126.886 -4.594)" fill="#FE4B00"/>
    <path id="Path_618" data-name="Path 618" d="M158.317,60.641c-.334.66-.639,1.265-.946,1.87-.771,1.519-1.546,3.036-2.309,4.559a.365.365,0,0,1-.405.244c-.234-.019-.471,0-.745,0,.067-.258.124-.477.181-.7.5-1.9.993-3.809,1.482-5.715.05-.195.124-.268.336-.264.783.014,1.567.006,2.407.006" transform="translate(-142.193 -36.335)" fill="#FE4B00"/>
    <path id="Path_619" data-name="Path 619" d="M171.529,67.311c-.315,0-.6.016-.878-.01-.084-.008-.186-.117-.232-.2-.693-1.352-1.378-2.709-2.066-4.064q-.557-1.1-1.117-2.2c-.023-.046-.04-.095-.071-.167a1.741,1.741,0,0,1,.189-.022c.751,0,1.5,0,2.254-.005a.219.219,0,0,1,.258.19q.818,3.155,1.643,6.31a1.5,1.5,0,0,1,.019.171" transform="translate(-149.7 -36.337)" fill="#FE4B00"/>
  </g>
</svg>
