<svg id="black-panair" xmlns="http://www.w3.org/2000/svg" width="19.928" height="27.689" viewBox="0 0 19.928 27.689">
  <path id="Path_627" data-name="Path 627" d="M597.422,52.068h17.456v.417q0,3.681,0,7.361a1.8,1.8,0,0,1-1.945,1.967q-6.788.006-13.576,0a1.8,1.8,0,0,1-1.935-1.941q0-3.718,0-7.435Z" transform="translate(-596.188 -34.126)" fill="#FE4B00"/>
  <path id="Path_628" data-name="Path 628" d="M604.373,7.938h7.955a1.812,1.812,0,0,1,1.985,1.97c0,.654,0,1.308,0,1.961a1.818,1.818,0,0,1-1.957,1.967q-7.992,0-15.983,0a1.818,1.818,0,0,1-1.984-1.976c0-.678,0-1.357,0-2.035a1.791,1.791,0,0,1,1.881-1.885q4.051-.007,8.1,0" transform="translate(-594.387 -7.937)" fill="#FE4B00"/>
  <path id="Path_629" data-name="Path 629" d="M616.632,41.975h-9.524c.1-.307.163-.589.27-.856a4.842,4.842,0,0,1,2.12-2.434.333.333,0,0,1,.451.037,3.047,3.047,0,0,0,3.918.005.4.4,0,0,1,.337-.077,4.711,4.711,0,0,1,2.436,3.184.618.618,0,0,1-.007.141" transform="translate(-601.936 -26.143)" fill="#FE4B00"/>
  <path id="Path_630" data-name="Path 630" d="M604.383,49.231h-9.169c-.135,0-.311.037-.4-.031-.155-.126-.344-.315-.351-.486-.006-.143.208-.32.359-.436.082-.062.238-.033.361-.033H613.6a1.914,1.914,0,0,1,.331.017.456.456,0,0,1,.419.483.468.468,0,0,1-.429.479,2.231,2.231,0,0,1-.369.01h-9.169" transform="translate(-594.434 -31.853)" fill="#FE4B00"/>
  <path id="Path_631" data-name="Path 631" d="M615.206,31.9a2.524,2.524,0,1,1,2.526-2.539,2.5,2.5,0,0,1-2.526,2.539" transform="translate(-605.245 -19.162)" fill="#FE4B00"/>
  <rect id="Rectangle_757" data-name="Rectangle 757" width="1.004" height="9.354" transform="translate(2.001 6.464)" fill="#FE4B00"/>
  <rect id="Rectangle_758" data-name="Rectangle 758" width="1.003" height="9.354" transform="translate(16.928 6.463)" fill="#FE4B00"/>
</svg>
