<svg xmlns="http://www.w3.org/2000/svg" width="27.867" height="22" viewBox="0 0 27.867 22">
  <path id="black-argetim" d="M110.364-763.865l3.571-2.713,3.5,2.685-1.343-4.338,3.627-2.832H115.35l-1.416-4.366-1.416,4.366h-4.366l3.554,2.832ZM102.652-758a2.554,2.554,0,0,1-1.874-.777A2.554,2.554,0,0,1,100-760.65v-4.019a1.046,1.046,0,0,1,.207-.64,1.03,1.03,0,0,1,.554-.381,3.818,3.818,0,0,0,1.568-1.331,3.424,3.424,0,0,0,.6-1.977,3.424,3.424,0,0,0-.6-1.977,3.818,3.818,0,0,0-1.568-1.331,1.03,1.03,0,0,1-.554-.381,1.046,1.046,0,0,1-.207-.64v-4.019a2.554,2.554,0,0,1,.777-1.874,2.554,2.554,0,0,1,1.874-.777h22.564a2.554,2.554,0,0,1,1.874.777,2.554,2.554,0,0,1,.777,1.874v4.019a1.046,1.046,0,0,1-.207.64,1.03,1.03,0,0,1-.554.381,3.818,3.818,0,0,0-1.568,1.331,3.424,3.424,0,0,0-.6,1.977,3.424,3.424,0,0,0,.6,1.977,3.817,3.817,0,0,0,1.568,1.331,1.03,1.03,0,0,1,.554.381,1.046,1.046,0,0,1,.207.64v4.019a2.554,2.554,0,0,1-.777,1.874,2.554,2.554,0,0,1-1.874.777Z" transform="translate(-100.001 779.998)" fill="#FE4B00"/>
</svg>
