<svg xmlns="http://www.w3.org/2000/svg" width="25.694" height="29.766" viewBox="0 0 25.694 29.766">
  <g id="black-jashte-tiranes" transform="translate(0)">
    <path id="Path_636" data-name="Path 636" d="M895.851,39.79h-7.082V10.026h10.816V28.834h-2.343c-1.391,0-1.391,0-1.391,1.363q0,4.464,0,8.929Zm.229-25.278c0,.2-.069.441.017.6a2.954,2.954,0,0,0,.546.572c.178-.2.453-.369.51-.6a4.4,4.4,0,0,0,.022-1.1c0-.368-.2-.654-.555-.584-.209.041-.4.34-.527.564-.078.141-.014.359-.013.543m0,4.957a1.635,1.635,0,0,0,.018.651c.1.212.366.522.509.5a.83.83,0,0,0,.543-.52,2.522,2.522,0,0,0,0-1.143.859.859,0,0,0-.515-.56c-.36-.075-.546.216-.558.58-.005.165,0,.33,0,.495m1.091,5.07h0a1.621,1.621,0,0,0-.018-.655c-.1-.21-.345-.488-.526-.487a.736.736,0,0,0-.523.482,3.219,3.219,0,0,0,0,1.262.759.759,0,0,0,.55.456c.154.015.393-.261.495-.458.083-.161.017-.4.017-.6m-4.958-9.992a2.073,2.073,0,0,0-.019-.711c-.072-.185-.313-.437-.462-.426a.707.707,0,0,0-.535.408,4.836,4.836,0,0,0,0,1.429.64.64,0,0,0,.488.4.824.824,0,0,0,.511-.448,1.637,1.637,0,0,0,.018-.655m0,4.977h0a1.728,1.728,0,0,0-.017-.655c-.089-.2-.311-.46-.484-.468a.677.677,0,0,0-.524.411,4.844,4.844,0,0,0,0,1.426.634.634,0,0,0,.495.387.821.821,0,0,0,.5-.449,1.654,1.654,0,0,0,.018-.653m0,4.983h0a1.708,1.708,0,0,0-.017-.653c-.09-.2-.314-.455-.487-.461a.679.679,0,0,0-.522.413,4.212,4.212,0,0,0,0,1.368.685.685,0,0,0,.511.43c.17,0,.406-.25.5-.444a1.666,1.666,0,0,0,.018-.652m0,4.992h0a1.721,1.721,0,0,0-.018-.652c-.088-.2-.307-.453-.481-.462a.67.67,0,0,0-.526.4A4.586,4.586,0,0,0,891.2,30.2c.026.161.352.369.546.376.151,0,.374-.243.451-.427a1.805,1.805,0,0,0,.017-.652m0,5.015h.006a2.124,2.124,0,0,0-.018-.707c-.069-.184-.3-.435-.447-.431-.194,0-.526.212-.549.37a5.25,5.25,0,0,0,0,1.473c.021.148.339.358.513.352a.72.72,0,0,0,.475-.4,1.714,1.714,0,0,0,.018-.651" transform="translate(-888.769 -10.026)" fill="#033e3c"/>
    <path id="Path_637" data-name="Path 637" d="M928.407,51.933V45.723c0-1.312,0-2.625,0-3.937,0-.621-.165-.784-.794-.792-.774-.009-1.547,0-2.359,0V32.163H934.5v19.77Zm3.895-7.854a1.372,1.372,0,0,0-.014-.548,3.154,3.154,0,0,0-.468-.582c-.2.173-.536.316-.584.525a2.982,2.982,0,0,0,0,1.263.743.743,0,0,0,.552.463c.172,0,.39-.3.5-.519a1.523,1.523,0,0,0,.017-.6m-3.768-9.971c0-.183.063-.4-.014-.543a3.448,3.448,0,0,0-.518-.593c-.188.185-.49.344-.54.56a2.838,2.838,0,0,0,0,1.2c.045.209.331.365.509.545a2.942,2.942,0,0,0,.546-.573c.086-.155.017-.395.018-.6m3.766.006a1.468,1.468,0,0,0-.016-.6c-.106-.212-.326-.507-.5-.507a.736.736,0,0,0-.55.458,3.387,3.387,0,0,0,0,1.31.743.743,0,0,0,.554.463c.172,0,.385-.312.49-.529a1.488,1.488,0,0,0,.015-.6m-3.767,5.009c0-.2.069-.441-.016-.6-.121-.221-.334-.49-.547-.53-.141-.027-.465.289-.506.492a3.22,3.22,0,0,0,0,1.255.737.737,0,0,0,.529.478c.182,0,.408-.29.52-.5.083-.158.017-.395.017-.6m3.769,0a1.358,1.358,0,0,0-.014-.543c-.113-.23-.28-.54-.485-.6-.358-.1-.568.2-.593.548a3.677,3.677,0,0,0,.019,1.148c.056.224.353.386.541.577a3.423,3.423,0,0,0,.517-.592c.078-.141.014-.358.015-.542" transform="translate(-908.804 -22.182)" fill="#033e3c"/>
    <path id="Path_638" data-name="Path 638" d="M907.007,54.253h10.245v9.8H907.007Zm3.187,4.163a1.6,1.6,0,0,0-.015-.6c-.091-.2-.3-.5-.452-.5a.753.753,0,0,0-.585.411,3.7,3.7,0,0,0,0,1.367.754.754,0,0,0,.586.409c.149.007.363-.286.454-.487a1.586,1.586,0,0,0,.015-.6m4.935-.023h.006c0-.184.009-.368,0-.551-.019-.343-.195-.565-.549-.559a.509.509,0,0,0-.532.572,5.247,5.247,0,0,0,.024,1.153c.046.2.317.491.5.5s.431-.256.538-.46c.09-.173.019-.431.019-.651" transform="translate(-898.784 -34.313)" fill="#033e3c"/>
  </g>
</svg>
