<?xml version="1.0" encoding="UTF-8"?>
<svg id="Layer_2" data-name="Layer 2" xmlns="http://www.w3.org/2000/svg" viewBox="0 0 99.94 54.17">
  <defs>
    <style>
      .cls-1 {
        fill: #00b907;
      }

      .cls-2 {
        fill: #dbff69;
      }
    </style>
  </defs>
  <g id="Layer_1-2" data-name="Layer 1">
    <g>
      <path class="cls-1" d="M14.91,8H49.25V0H14.91C6.69,0,0,6.69,0,14.91v24.15c0,8.22,6.69,14.91,14.91,14.91h.05c4.59,0,6.71-1.76,9.93-4.43,.51-.42,1.07-.89,1.71-1.4l.11-.09,14.19-13.21v19.27h8V21.73H16.52v8h18.13l-13.19,12.27c-.62,.5-1.17,.96-1.67,1.37-2.98,2.47-3.21,2.59-4.83,2.59h-.05c-3.81,0-6.91-3.1-6.91-6.91V14.91c0-3.81,3.1-6.91,6.91-6.91Z"/>
      <path class="cls-2" d="M83.12,43.58c-.5-.42-1.05-.87-1.67-1.37l-13.4-12.47h17.03c8.2,0,14.87-6.65,14.87-14.83S93.26,0,85.04,0h-31.02V8h31.02c3.81,0,6.91,3.1,6.91,6.91s-3.02,6.83-6.87,6.83h-7.73s-23.86,0-23.86,0V54.11h8v-19.56l14.62,13.61,.21,.18c.63,.51,1.2,.98,1.71,1.4,3.22,2.67,5.35,4.43,9.93,4.43h10.54v-8h-10.54c-1.62,0-1.85-.12-4.83-2.59Z"/>
    </g>
  </g>
</svg>