<svg xmlns="http://www.w3.org/2000/svg" width="9.666" height="13" viewBox="0 0 9.666 13">
  <g id="location" transform="translate(0.5 0.5)">
    <path id="Vector" d="M4.333-.5A4.839,4.839,0,0,1,9.166,4.333c0,2.971-2.791,6.438-3.991,7.791a1.129,1.129,0,0,1-1.681,0C2.291,10.771-.5,7.3-.5,4.333A4.839,4.839,0,0,1,4.333-.5Zm0,12a.127.127,0,0,0,.1-.044c.874-.986,3.736-4.422,3.736-7.124a3.833,3.833,0,0,0-7.666,0c0,2.7,2.862,6.138,3.739,7.127A.125.125,0,0,0,4.333,11.5Z" fill="#000000"/>
    <path id="Vector-2" data-name="Vector" d="M1.736-.5A2.236,2.236,0,1,1-.5,1.736,2.238,2.238,0,0,1,1.736-.5Zm0,3.472A1.236,1.236,0,1,0,.5,1.736,1.237,1.237,0,0,0,1.736,2.972Z" transform="translate(2.59 2.597)" fill="#000000"/>
  </g>
</svg>
