<?xml version="1.0" encoding="utf-8"?>
<!-- Generator: Adobe Illustrator 28.1.0, SVG Export Plug-In . SVG Version: 6.00 Build 0)  -->
<svg version="1.1" id="Layer_1" xmlns="http://www.w3.org/2000/svg" xmlns:xlink="http://www.w3.org/1999/xlink" x="0px" y="0px"
	 viewBox="0 0 40 40" style="enable-background:new 0 0 40 40;" xml:space="preserve">
<style type="text/css">
	.st0{fill:#ED174E;}
	.st1{fill:#FFFFFF;}
</style>
<g id="Layer_1-2">
	<path class="st0" d="M27.1,36.8c-9.3,3.9-20-0.4-24-9.7s0.4-20,9.7-24s20,0.4,24,9.7c2,4.8,1.9,10.3-0.4,15.1"/>
	<path class="st0" d="M36.5,27.9c-1.9,4-5.3,7.2-9.4,8.9"/>
	<path class="st1" d="M34.1,5.9C26.3-1.9,13.7-2,5.9,5.8l0,0C-2,13.6-2,26.3,5.9,34.1l0,0c7.8,7.8,20.5,7.8,28.3,0
		c1.6-1.6,2.9-3.4,3.9-5.5C41.7,21,40.1,11.9,34.1,5.9 M26.4,35.3C18,38.8,8.3,34.9,4.7,26.4c-0.9-2-1.3-4.2-1.3-6.4
		c0-9.2,7.4-16.6,16.6-16.6c4.4,0,8.6,1.7,11.7,4.9c6.5,6.5,6.5,17,0,23.4C30.2,33.2,28.4,34.4,26.4,35.3"/>
	<path class="st1" d="M27.1,18.3H16.3c0.4,1.9,1.8,3.1,4.1,3.1c1.4,0,2.3-0.4,2.8-1.3h3.7c-0.8,2.6-3.4,4.2-6.6,4.2
		c-3.9,0.2-7.2-2.8-7.5-6.7c0-0.2,0-0.4,0-0.7c-0.1-2,0.7-3.9,2.1-5.3c1.4-1.4,3.4-2.2,5.4-2.1c1.8-0.1,3.6,0.7,4.9,2
		c1.3,1.4,2,3.2,2,5.1C27.2,17.3,27.1,17.8,27.1,18.3 M16.3,15.8h7.4c-0.3-2-1.5-3.2-3.6-3.2C18,12.5,16.6,13.8,16.3,15.8"/>
	<path class="st1" d="M13.2,30.8h-0.5v-0.2c-0.2,0.2-0.6,0.3-0.9,0.3c-0.4,0-0.7-0.1-0.9-0.4c-0.5-0.5-0.5-1.4,0-1.9
		c0.2-0.3,0.6-0.4,0.9-0.4c0.3,0,0.6,0.1,0.9,0.3v-0.2h0.5V30.8z M12.7,30v-1c-0.2-0.3-0.5-0.4-0.8-0.4c-0.2,0-0.5,0.1-0.6,0.3
		C11.1,29,11,29.3,11,29.5c0,0.2,0.1,0.5,0.3,0.6c0.2,0.2,0.4,0.3,0.6,0.3C12.2,30.4,12.5,30.3,12.7,30"/>
	<rect x="14" y="26.9" class="st1" width="0.5" height="3.9"/>
	<path class="st1" d="M17.7,28.5c0.3,0.3,0.4,0.6,0.4,1s-0.1,0.7-0.4,1s-0.6,0.4-1,0.4c-0.3,0-0.6-0.1-0.8-0.3v0.3h-0.5v-4h0.5v1.6
		c0.2-0.2,0.5-0.3,0.9-0.3C17.1,28.1,17.5,28.3,17.7,28.5 M17.3,30.1c0.2-0.2,0.3-0.4,0.3-0.6c0-0.2-0.1-0.5-0.3-0.6
		c-0.2-0.2-0.4-0.3-0.6-0.3c-0.3,0-0.6,0.1-0.8,0.4v1c0.2,0.3,0.5,0.4,0.8,0.4C16.9,30.4,17.2,30.3,17.3,30.1"/>
	<path class="st1" d="M21.3,30.8h-0.5v-0.2c-0.2,0.2-0.5,0.3-0.9,0.3c-0.4,0-0.7-0.1-0.9-0.4c-0.5-0.5-0.5-1.4,0-1.9
		c0.2-0.3,0.6-0.4,0.9-0.4s0.6,0.1,0.9,0.3v-0.2h0.5V30.8z M20.8,30v-1c-0.2-0.3-0.5-0.4-0.8-0.4c-0.2,0-0.5,0.1-0.6,0.3
		c-0.2,0.2-0.3,0.4-0.3,0.6c0,0.2,0.1,0.5,0.3,0.6c0.2,0.2,0.4,0.3,0.6,0.3C20.3,30.4,20.6,30.3,20.8,30"/>
	<path class="st1" d="M24.6,30.8h-0.5v-1.4c0-0.4-0.2-0.7-0.6-0.8h-0.1c-0.3,0-0.6,0.2-0.8,0.4v1.8h-0.5v-2.6h0.5v0.3
		c0.2-0.2,0.5-0.4,0.9-0.3c0.3,0,0.6,0.1,0.8,0.3c0.2,0.2,0.3,0.6,0.3,0.9L24.6,30.8z"/>
	<path class="st1" d="M25.4,27.2c0-0.2,0.1-0.3,0.3-0.3l0,0c0.2,0,0.3,0.1,0.3,0.3c0,0.2-0.1,0.3-0.3,0.3
		C25.5,27.6,25.4,27.4,25.4,27.2L25.4,27.2 M26,30.8h-0.5v-2.6H26V30.8z"/>
	<path class="st1" d="M29.4,30.8h-0.5v-0.2c-0.2,0.2-0.5,0.3-0.9,0.3c-0.4,0-0.7-0.1-1-0.4c-0.5-0.5-0.5-1.4,0-1.9
		c0.2-0.3,0.6-0.4,1-0.4c0.3,0,0.6,0.1,0.9,0.3v-0.2h0.5V30.8z M28.9,30v-1c-0.2-0.3-0.5-0.4-0.8-0.4c-0.2,0-0.5,0.1-0.6,0.3
		c-0.2,0.2-0.3,0.4-0.3,0.6c0,0.2,0.1,0.5,0.3,0.6c0.2,0.2,0.4,0.3,0.6,0.3C28.4,30.4,28.7,30.3,28.9,30"/>
</g>
</svg>
