<svg id="sygjerime" xmlns="http://www.w3.org/2000/svg" xmlns:xlink="http://www.w3.org/1999/xlink" width="57.366" height="46.793" viewBox="0 0 57.366 46.793">
  <defs>
    <clipPath id="clip-path">
      <rect id="Rectangle_759" data-name="Rectangle 759" width="57.366" height="46.793" fill="#fff"/>
    </clipPath>
  </defs>
  <g id="Group_847" data-name="Group 847" clip-path="url(#clip-path)">
    <path id="Path_646" data-name="Path 646" d="M62.1,179.033c.065-1.09.166-2.074.173-3.058.022-3,.008-5.992.008-8.988v-3.645h.477c3.035,0,6.07.007,9.106,0a5.049,5.049,0,0,1,2.86.834c1.626,1.062,3.272,2.092,4.9,3.145a4.546,4.546,0,0,0,2.575.767c2.2-.022,4.4-.011,6.606,0a3.054,3.054,0,0,1,3.1,2.434,1.691,1.691,0,0,1-1.551,2.325,5.485,5.485,0,0,1-.89.051q-4.612.005-9.224,0a1.282,1.282,0,0,0-.639.057.916.916,0,0,0-.429.6c0,.2.242.453.441.592.138.1.384.048.581.048,3.075,0,6.15-.011,9.225.007a4.467,4.467,0,0,0,3.312-1.2,1.791,1.791,0,0,1,.626-.317q5.9-2.19,11.8-4.369a3.219,3.219,0,0,1,2.471,5.945q-4.466,2.012-8.94,4.006c-3.107,1.391-6.223,2.76-9.318,4.178a18.3,18.3,0,0,1-13.6.839c-4.394-1.389-8.8-2.727-13.2-4.089-.186-.058-.369-.124-.466-.157" transform="translate(-52.243 -137.411)" fill="#fff"/>
    <path id="Path_647" data-name="Path 647" d="M179.517,13.431a5.426,5.426,0,0,1-.655,1.063c-1.284,1.3-2.594,2.567-3.915,3.826a1.758,1.758,0,0,0-.6,1.747c.35,1.827.64,3.665.961,5.5a1.428,1.428,0,0,1-.52,1.484,1.391,1.391,0,0,1-1.617.094c-1.613-.848-3.235-1.678-4.829-2.559a1.938,1.938,0,0,0-2.064.014c-1.559.862-3.155,1.658-4.726,2.5a1.456,1.456,0,0,1-1.624.008,1.383,1.383,0,0,1-.577-1.51c.318-1.813.609-3.63.94-5.44a1.78,1.78,0,0,0-.534-1.773c-1.311-1.24-2.587-2.518-3.884-3.774a1.5,1.5,0,0,1-.591-1.622,1.562,1.562,0,0,1,1.492-1.062c1.766-.238,3.527-.509,5.292-.748a1.787,1.787,0,0,0,1.489-1.106c.769-1.629,1.595-3.231,2.379-4.853a1.452,1.452,0,0,1,2.778.018c.77,1.607,1.591,3.19,2.349,4.8a1.911,1.911,0,0,0,1.649,1.159c1.787.227,3.569.494,5.35.762a1.582,1.582,0,0,1,1.456,1.472" transform="translate(-130.576 -3.529)" fill="#fff"/>
    <path id="Path_648" data-name="Path 648" d="M8.8,156.892c0,1.964,0,3.928,0,5.892a4.381,4.381,0,0,1-8.6,1.256,4.639,4.639,0,0,1-.182-1.286q-.02-5.922,0-11.844A4.362,4.362,0,0,1,3.923,146.5a4.344,4.344,0,0,1,4.81,3.558,6.034,6.034,0,0,1,.064,1.125c.006,1.9,0,3.809,0,5.714m-2.277,5.921a5.106,5.106,0,0,0-.006-.711.607.607,0,0,0-.675-.6.586.586,0,0,0-.6.661c-.006.415,0,.831,0,1.246a.591.591,0,0,0,.607.66.614.614,0,0,0,.673-.605,5.074,5.074,0,0,0,0-.652" transform="translate(0 -123.223)" fill="#fff"/>
    <path id="Path_649" data-name="Path 649" d="M262.694,5.834c.606-.1,1.2-.217,1.809-.276a1.353,1.353,0,0,0,1.162-.876c.615-1.284,1.268-2.551,1.886-3.834A1.238,1.238,0,0,1,268.663,0a1.205,1.205,0,0,1,1.123.827c.628,1.3,1.283,2.587,1.91,3.888a1.353,1.353,0,0,0,1.124.841c1.373.177,2.74.4,4.113.585,1.115.147,1.671.787,1.327,1.608a1.841,1.841,0,0,1-.419.562c-1.015,1-2.033,2-3.067,2.989a1.432,1.432,0,0,0-.479,1.434c.267,1.358.485,2.725.725,4.088a1.323,1.323,0,0,1-.377,1.461,1.309,1.309,0,0,1-1.549-.06c-1.218-.66-2.456-1.283-3.67-1.95a1.409,1.409,0,0,0-1.509,0c-.527.3-1.076.57-1.619.854-.388-.928-.361-1.079.28-1.706,1.219-1.192,2.435-2.388,3.66-3.574a2.615,2.615,0,0,0,.775-2.762,2.583,2.583,0,0,0-2.252-1.929c-1.8-.28-3.6-.542-5.4-.824-.282-.044-.676.014-.668-.5" transform="translate(-220.996 0)" fill="#fff"/>
    <path id="Path_650" data-name="Path 650" d="M117.286,6.013a2.138,2.138,0,0,1-.623.34c-1.74.272-3.484.515-5.227.765a2.721,2.721,0,0,0-2.573,2.314,2.58,2.58,0,0,0,.807,2.374q1.832,1.826,3.674,3.644c.688.681.689.68.354,1.7-.512-.267-1.033-.5-1.512-.8a1.622,1.622,0,0,0-1.829.011c-1.17.665-2.376,1.266-3.561,1.9a1.266,1.266,0,0,1-1.45.044,1.241,1.241,0,0,1-.412-1.387c.261-1.44.506-2.884.763-4.325a1.294,1.294,0,0,0-.445-1.224c-1.013-.978-2.014-1.967-3.031-2.941-.421-.4-.762-.819-.553-1.453s.762-.745,1.324-.827c1.39-.2,2.779-.414,4.171-.6a1.311,1.311,0,0,0,1.083-.805c.62-1.283,1.262-2.556,1.883-3.839.238-.492.538-.9,1.136-.907.625-.007.932.41,1.18.927.6,1.25,1.23,2.484,1.831,3.733a1.4,1.4,0,0,0,1.211.905c.569.05,1.132.171,1.7.261l.1.182" transform="translate(-85.477 -0.004)" fill="#fff"/>
  </g>
</svg>
