<svg xmlns="http://www.w3.org/2000/svg" width="13" height="13" viewBox="0 0 13 13">
  <g id="time" transform="translate(-1605.799 17969.5)">
    <path id="Vector" d="M6-.5A6.5,6.5,0,1,1-.5,6,6.507,6.507,0,0,1,6-.5Zm0,12A5.5,5.5,0,1,0,.5,6,5.506,5.506,0,0,0,6,11.5Z" transform="translate(1606.299 -17969)" fill="#000000"/>
    <path id="Line_47" data-name="Line 47" d="M0,4.43a.5.5,0,0,1-.5-.5V0A.5.5,0,0,1,0-.5.5.5,0,0,1,.5,0V3.93A.5.5,0,0,1,0,4.43Z" transform="translate(1612.299 -17966.5)" fill="#000000"/>
    <path id="Line_48" data-name="Line 48" d="M3.723.5H0A.5.5,0,0,1-.5,0,.5.5,0,0,1,0-.5H3.723a.5.5,0,0,1,.5.5A.5.5,0,0,1,3.723.5Z" transform="translate(1612.299 -17962.57)" fill="#000000"/>
  </g>
</svg>
