<svg xmlns="http://www.w3.org/2000/svg" width="30" height="30" viewBox="0 0 30 30">
  <g id="Group_917" data-name="Group 917" transform="translate(-1171 -453.604)">
    <path id="Path_701" data-name="Path 701" d="M2403.857,30h-12.523a8.738,8.738,0,0,1-8.738-8.739V8.739A8.738,8.738,0,0,1,2391.334,0h12.523a8.738,8.738,0,0,1,8.739,8.739V21.261A8.738,8.738,0,0,1,2403.857,30" transform="translate(-1211.596 453.604)" fill="#fff"/>
    <path id="Path_702" data-name="Path 702" d="M2472.873,65.632h3.034v-7h2.242l.448-2.828h-2.69V53.666a1.363,1.363,0,0,1,1.483-1.242h1.31V50.079l-2.345-.1c-2.242-.138-3.483,1.621-3.483,3.724v2.1h-2.552v2.828h2.552Z" transform="translate(-1288.511 410.803)" fill="#fe4b00" fill-rule="evenodd"/>
  </g>
</svg>
