<svg xmlns="http://www.w3.org/2000/svg" width="30.001" height="30" viewBox="0 0 30.001 30">
  <g id="Group_912" data-name="Group 912" transform="translate(-984 -453.604)">
    <path id="Path_689" data-name="Path 689" d="M418.426,30H405.9a8.739,8.739,0,0,1-8.739-8.739V8.739A8.739,8.739,0,0,1,405.9,0h12.523a8.739,8.739,0,0,1,8.739,8.739V21.261A8.739,8.739,0,0,1,418.426,30" transform="translate(586.836 453.604)" fill="#fff"/>
    <path id="Path_690" data-name="Path 690" d="M463.985,62.655c4.572,0,8.309,3.033,8.309,6.726a6.083,6.083,0,0,1-2.682,4.924,24.787,24.787,0,0,1-5.407,3.825c-.747.4-.879.176-.791-.528.088-.44.176-1.011.176-1.011.088-.4-.352-.484-.527-.528h-.088c-4.132-.4-7.3-3.253-7.3-6.682,0-3.693,3.737-6.726,8.309-6.726" transform="translate(535.015 398.115)" fill="#fe4b00" fill-rule="evenodd"/>
    <path id="Path_691" data-name="Path 691" d="M480.277,109.444h2.594v-.7h-1.8v-3.033h-.792Zm3.033,0h.791v-3.737h-.791Zm4.044-3.737v2.286l-1.758-2.286h-.659v3.737h.791V107.2l1.758,2.242h.659v-3.737Zm2.418,3.077V107.9h1.671v-.659h-1.671v-.835h1.671v-.7h-2.462v3.737h2.462v-.659Z" transform="translate(513.229 359.986)" fill="#fff" fill-rule="evenodd"/>
  </g>
</svg>
