<svg xmlns="http://www.w3.org/2000/svg" width="30.001" height="30" viewBox="0 0 30.001 30">
  <g id="Group_911" data-name="Group 911" transform="translate(-946 -453.604)">
    <path id="Path_687" data-name="Path 687" d="M21.34,30H8.817A8.739,8.739,0,0,1,.078,21.261V8.739A8.739,8.739,0,0,1,8.817,0H21.34a8.739,8.739,0,0,1,8.739,8.739V21.261A8.739,8.739,0,0,1,21.34,30" transform="translate(945.922 453.604)" fill="#fff"/>
    <path id="Path_688" data-name="Path 688" d="M64.905,80.957C68.4,79.493,72.621,77.409,76.282,76c3.379-1.239,3.323-.9,2.816,2.478-.394,2.7-.845,5.407-1.3,8.11-.169,1.3-.845,1.971-2.253,1.183l-4.393-3.1c-.619-.507-.45-.9.056-1.408l4.055-3.83c1.07-1.07.563-1.464-.676-.619L69.017,82.59a2.7,2.7,0,0,1-2.534.282L64.567,82.2c-1.239-.45-.282-.957.338-1.239" transform="translate(889.342 386.879)" fill="#fe4b00" fill-rule="evenodd"/>
  </g>
</svg>
