<svg xmlns="http://www.w3.org/2000/svg" width="30.001" height="30" viewBox="0 0 30.001 30">
  <g id="Group_913" data-name="Group 913" transform="translate(-1021 -453.604)">
    <path id="Path_692" data-name="Path 692" d="M815.512,30H802.989a8.739,8.739,0,0,1-8.739-8.739V8.739A8.739,8.739,0,0,1,802.989,0h12.523a8.739,8.739,0,0,1,8.739,8.739V21.261A8.739,8.739,0,0,1,815.512,30" transform="translate(226.75 453.604)" fill="#fff"/>
    <path id="Path_693" data-name="Path 693" d="M853.348,55.044h7.234a4.255,4.255,0,0,1,4.235,4.235v7.2a4.255,4.255,0,0,1-4.235,4.235h-7.234a4.255,4.255,0,0,1-4.235-4.235v-7.2a4.255,4.255,0,0,1,4.235-4.235m7.833,2.736h0a.9.9,0,0,1,0,1.8.9.9,0,1,1,0-1.8m-4.235.824h.037a4.273,4.273,0,0,1,0,8.545h-.037a4.273,4.273,0,0,1,0-8.545m0,1.462h.037a2.83,2.83,0,0,1,0,5.659h-.037a2.83,2.83,0,0,1,0-5.659m-3.561-3.673h7.159a2.927,2.927,0,0,1,2.923,2.923v7.121a2.927,2.927,0,0,1-2.923,2.923h-7.159a2.927,2.927,0,0,1-2.923-2.923V59.317a2.927,2.927,0,0,1,2.923-2.923" transform="translate(179.036 405.725)" fill="#fe4b00" fill-rule="evenodd"/>
  </g>
</svg>
