<svg xmlns="http://www.w3.org/2000/svg" width="30" height="30" viewBox="0 0 30 30">
  <g id="Group_916" data-name="Group 916" transform="translate(-1134 -453.604)">
    <path id="Path_698" data-name="Path 698" d="M2006.771,30h-12.523a8.739,8.739,0,0,1-8.739-8.739V8.739A8.739,8.739,0,0,1,1994.248,0h12.523a8.739,8.739,0,0,1,8.739,8.739V21.261A8.739,8.739,0,0,1,2006.771,30" transform="translate(-851.509 453.604)" fill="#fff"/>
    <path id="Path_699" data-name="Path 699" d="M2042.967,49.969a7.657,7.657,0,1,1,0,15.308,8.1,8.1,0,0,1-2.468-.393l-1.431.608c-.823.358-1.145.036-1.145-.966v-1a7.683,7.683,0,0,1-2.825-5.9,7.779,7.779,0,0,1,7.869-7.654" transform="translate(-893.967 410.803)" fill="#fe4b00" fill-rule="evenodd"/>
    <path id="Path_700" data-name="Path 700" d="M2068.05,110.341l1.9-2.9c.25-.429.5-.858,1.037-.966a1.129,1.129,0,0,1,1.038.286l1.681,1.252c.286.215.358.215.644,0l2.182-1.609c.572-.465,1.073-.179.68.465l-2.075,3.326s-.465.751-1.109.715a1.318,1.318,0,0,1-.786-.286l-1.789-1.395c-.215-.143-.322-.143-.573.036l-2.253,1.717c-.645.5-1.038.072-.572-.644" transform="translate(-923.556 360.016)" fill="#fff" fill-rule="evenodd"/>
  </g>
</svg>
