<svg xmlns="http://www.w3.org/2000/svg" width="30.001" height="30" viewBox="0 0 30.001 30">
  <g id="Group_914" data-name="Group 914" transform="translate(-1059 -453.604)">
    <path id="Path_694" data-name="Path 694" d="M1212.6,30h-12.523a8.739,8.739,0,0,1-8.739-8.739V8.739A8.739,8.739,0,0,1,1200.076,0H1212.6a8.739,8.739,0,0,1,8.739,8.739V21.261A8.739,8.739,0,0,1,1212.6,30" transform="translate(-132.337 453.604)" fill="#fff"/>
    <path id="Path_695" data-name="Path 695" d="M1252.784,72.167a3.306,3.306,0,0,1,5.67-2.876,8.347,8.347,0,0,0,1.959-.875,3.608,3.608,0,0,1-1.459,1.834,6.216,6.216,0,0,0,1.792-.5,3.484,3.484,0,0,1-1.542,1.542c.542,7.545-7.587,12.13-14.173,8.379,0,0,3.251.167,4.627-1.417a3.17,3.17,0,0,1-3-2.251,2.011,2.011,0,0,0,1.5-.083,3.253,3.253,0,0,1-2.543-3.168,2.054,2.054,0,0,0,1.584.375,3.2,3.2,0,0,1-1.126-4.335s2.751,3.5,6.711,3.377" transform="translate(-178.888 393.98)" fill="#fe4b00" fill-rule="evenodd"/>
  </g>
</svg>
