<svg xmlns="http://www.w3.org/2000/svg" width="30" height="30" viewBox="0 0 30 30">
  <g id="Group_915" data-name="Group 915" transform="translate(-1096 -453.604)">
    <path id="Path_696" data-name="Path 696" d="M1609.684,30h-12.523a8.738,8.738,0,0,1-8.738-8.739V8.739A8.738,8.738,0,0,1,1597.161,0h12.523a8.739,8.739,0,0,1,8.739,8.739V21.261A8.739,8.739,0,0,1,1609.684,30" transform="translate(-492.423 453.604)" fill="#fff"/>
    <path id="Path_697" data-name="Path 697" d="M1648.516,59.3c.437-.278.715-.08.875.358l.4,1.034s.279.557-.437,1.113c-.12.08-.12.08-.08.278a5.724,5.724,0,0,0,2.823,3.021c.2.119.239.119.437-.04l.517-.517c.357-.318.557-.437.875-.2.239.159.477.358.716.517.239.2.636.437.239.914l-.358.437a1.359,1.359,0,0,1-1.63.517,7.475,7.475,0,0,1-5.327-5.089,1.992,1.992,0,0,1,.954-2.346m2.783-4.254a7.832,7.832,0,0,1,0,15.664,7.567,7.567,0,0,1-3.3-.716l-4.174.716.557-4.135-.04-.079a7.85,7.85,0,0,1,6.958-11.45m-4.93,13.915,1.113-.2.676-.119a6.466,6.466,0,0,0,3.141.8c5.153,0,8.935-5.969,4.8-11.357-5.389-4.137-11.357-.356-11.357,4.8a6.706,6.706,0,0,0,1.034,3.538l-.079.6-.159,1.193-.119.914Z" transform="translate(-540.299 405.729)" fill="#fe4b00" fill-rule="evenodd"/>
  </g>
</svg>
