<svg xmlns="http://www.w3.org/2000/svg" width="54" height="54" viewBox="0 0 54 54">
  <g id="Argetim_dhe_Sport-white" data-name="Argetim dhe Sport-white" transform="translate(-975 17025.406)">
    <path id="Path_713" data-name="Path 713" d="M27,1A26.007,26.007,0,0,0,16.88,50.957,26.007,26.007,0,0,0,37.12,3.043,25.836,25.836,0,0,0,27,1m0-1A27,27,0,1,1,0,27,27,27,0,0,1,27,0Z" transform="translate(975 -17025.406)" fill="#000000"/>
    <path id="Subtraction_2" data-name="Subtraction 2" d="M34.912,19.428H19.288a10.015,10.015,0,0,0-1.372-9.821A10.066,10.066,0,0,0,12.66,6.075a1.024,1.024,0,0,1-.016-.184V2.341A2.265,2.265,0,0,1,13.33.686,2.263,2.263,0,0,1,14.985,0H34.912a2.267,2.267,0,0,1,1.656.687,2.265,2.265,0,0,1,.686,1.655v3.55a.932.932,0,0,1-.183.565.912.912,0,0,1-.49.336A3.391,3.391,0,0,0,35.2,7.968a3.127,3.127,0,0,0,0,3.492,3.391,3.391,0,0,0,1.385,1.176.912.912,0,0,1,.49.336.933.933,0,0,1,.183.566v3.549a2.343,2.343,0,0,1-2.342,2.342ZM19.842,7.89l3.138,2.5L21.8,14.247l3.154-2.4,3.089,2.371-1.186-3.83,3.2-2.5H26.2l-1.25-3.856L23.7,7.89Z" transform="translate(981 -17009.715)" fill="#000000"/>
    <g id="Group_913" data-name="Group 913" transform="translate(-1.079 -1.079)">
      <path id="Layer_2" data-name="Layer 2" d="M6.086,11.125H2.05a8.238,8.238,0,0,0,1.707,4.252A6.547,6.547,0,0,0,6.086,11.125Zm-2.329-5.9A8.238,8.238,0,0,0,2.05,9.468H6.094A6.514,6.514,0,0,0,3.757,5.224ZM15.683,4.006A8.288,8.288,0,0,0,11.125,2.05V9.468h1.707a8.221,8.221,0,0,1,2.851-5.462ZM7.752,9.468H9.468V2.05A8.288,8.288,0,0,0,4.9,4.014,8.155,8.155,0,0,1,7.752,9.468Zm9.083,5.909a8.238,8.238,0,0,0,1.707-4.252H14.507a6.547,6.547,0,0,0,2.329,4.252Zm1.707-5.909a8.238,8.238,0,0,0-1.707-4.243,6.547,6.547,0,0,0-2.329,4.243Zm-5.71,1.658H11.125v7.418a8.288,8.288,0,0,0,4.558-1.956,8.221,8.221,0,0,1-2.851-5.462ZM4.909,16.587a8.288,8.288,0,0,0,4.558,1.956V11.125H7.76a8.221,8.221,0,0,1-2.851,5.462Z" transform="translate(981.782 -17003.217)" fill="#000000"/>
    </g>
  </g>
</svg>
