<svg xmlns="http://www.w3.org/2000/svg" width="54" height="54" viewBox="0 0 54 54">
  <g id="Kinema_dhe_Teater-white" data-name="Kinema dhe Teater-white" transform="translate(-877 16893.406)">
    <path id="Subtraction_1" data-name="Subtraction 1" d="M-149.289,162.982l-.053,0c-.082-.007-.172-.01-.282-.01l-.217,0-.247,0c.041-.16.079-.3.115-.444l.066-.252.359-1.38.011-.044c.366-1.4.744-2.856,1.111-4.29.052-.2.13-.265.321-.265h.015c.322.006.666.009,1.113.009h1.295l-.35.693c-.2.4-.4.79-.6,1.177l-.648,1.275c-.547,1.076-1.112,2.188-1.661,3.284A.362.362,0,0,1-149.289,162.982Zm8.8,0c-.151,0-.266,0-.371-.014a.388.388,0,0,1-.231-.205c-.545-1.063-1.093-2.144-1.622-3.188l-.444-.876-.557-1.095-.01-.019-.55-1.083c-.015-.029-.026-.058-.041-.1l-.029-.072.065-.009a.812.812,0,0,1,.124-.013h1.126c.34,0,.736,0,1.128,0h.008a.217.217,0,0,1,.25.19q.511,1.971,1.026,3.942l0,.015q.307,1.176.613,2.352a.516.516,0,0,1,.012.093c0,.022,0,.048.007.078h-.076l-.187,0Zm1.661-7.226h-10.915c.245-.215.5-.45.758-.7a30.35,30.35,0,0,0,3.818-4.6c.461-.666.891-1.349,1.307-2.009l.02-.032.125-.2c.15-.237.3-.48.454-.714l.239-.371V145.78l-.044-.179a9.608,9.608,0,0,0-2.049-4.077,18.863,18.863,0,0,0-3.219-2.944.851.851,0,0,0,.191-.39,1.606,1.606,0,0,0-.024-.773,1.06,1.06,0,0,0-1.043-.712,1.258,1.258,0,0,0-.162.011,1.028,1.028,0,0,0-.852.663c-.431-.241-.886-.474-1.353-.693a6.344,6.344,0,0,1,2.033-3.1A6.611,6.611,0,0,1-145.267,132a6.636,6.636,0,0,1,5.084,2.426,6.449,6.449,0,0,1,1.295,5.707,6.453,6.453,0,0,1-3.755,4.493l-.152.065-.005,0-.106.046a6.4,6.4,0,0,0,4.4-2.784.428.428,0,0,1,.4-.223h.011c.241,0,.5.006.837.006h1.125c.465,0,.664.2.666.662q0,.4,0,.809t0,.81c0,.417.179.6.634.638.095.009.19.013.281.013a2.961,2.961,0,0,0,1.7-.556c1.055-.706,2.15-1.391,3.209-2.053.483-.3.98-.612,1.466-.921a.809.809,0,0,1,.425-.162.479.479,0,0,1,.24.067.62.62,0,0,1,.288.611c0,4.215,0,8.489,0,12.7a.574.574,0,0,1-.272.563.525.525,0,0,1-.261.072.73.73,0,0,1-.387-.132l-1.976-1.25-.01-.006c-1.068-.675-2.172-1.373-3.256-2.064a1.2,1.2,0,0,0-.668-.219l-.075,0c-.074,0-.156.007-.256.007h-.2l-.191,0h-.07a.552.552,0,0,0-.623.619c0,.258,0,.516,0,.774v.007c0,.283,0,.576,0,.864,0,.445-.2.643-.65.644h-1.406c-.453,0-.649.193-.654.641,0,.036,0,.071,0,.107a2.011,2.011,0,0,1-.005.238.549.549,0,0,1-.535.525C-138.754,155.751-138.786,155.752-138.823,155.752Zm10.651-13.506h0l-5.119,3.12.024.052.414-.08q.454-.089.909-.176l1.08-.2c.8-.152,1.636-.309,2.458-.469.082-.017.224-.1.225-.151.012-.534.011-1.068.01-1.633,0-.152,0-.3,0-.46Zm-14.857-1.477h0a1.137,1.137,0,0,0-.811.338,1.129,1.129,0,0,0-.327.809,1.137,1.137,0,0,0,1.135,1.121,1.124,1.124,0,0,0,1.137-1.119,1.133,1.133,0,0,0-.328-.816,1.12,1.12,0,0,0-.8-.335Zm1.684-2.558h0a1.128,1.128,0,0,0-1.136,1.124,1.126,1.126,0,0,0,1.115,1.148h.021a1.143,1.143,0,0,0,1.133-1.113,1.124,1.124,0,0,0-.322-.816,1.127,1.127,0,0,0-.809-.343Zm-.633-3a1.154,1.154,0,0,0-1.122,1.146,1.136,1.136,0,0,0,1.133,1.127,1.123,1.123,0,0,0,1.136-1.126,1.139,1.139,0,0,0-.336-.812,1.121,1.121,0,0,0-.8-.335Zm-5.544-1.064a1.132,1.132,0,0,0-.806.336,1.144,1.144,0,0,0-.324.82,1.118,1.118,0,0,0,1.134,1.112h.009a1.117,1.117,0,0,0,1.115-1.14,1.128,1.128,0,0,0-1.119-1.129Zm3.006-.61a1.125,1.125,0,0,0-1.139,1.13,1.119,1.119,0,0,0,1.128,1.128h.012a1.117,1.117,0,0,0,1.128-1.118,1.117,1.117,0,0,0-1.115-1.14Z" transform="translate(1050.059 -17013.898)" fill="#FE4B00" stroke="rgba(0,0,0,0)" stroke-miterlimit="10" stroke-width="1"/>
    <g id="Group_912" data-name="Group 912" transform="translate(-66.441 -16.521)">
      <g id="Group_831" data-name="Group 831" transform="translate(939.288 -16871.465)">
        <path id="Path_620" data-name="Path 620" d="M296.8,53.4c-1.437-.105-2.073-1.183-2.689-2.253a13.258,13.258,0,0,1-1.46-8.353,27.533,27.533,0,0,1,3.7-10.44,1.859,1.859,0,0,1,.911-.736,8.119,8.119,0,0,1,5.27-.01,18.943,18.943,0,0,1,9.25,5.694,8.2,8.2,0,0,1,1.727,3.458v.726c-.625.971-1.222,1.962-1.878,2.911-2.186,3.155-4.726,5.967-8.268,7.616a34.2,34.2,0,0,1-4.385,1.389Zm8.415-7.249a12.455,12.455,0,0,1-8.361-4.651,8.383,8.383,0,0,0,.262,5.538,3.119,3.119,0,0,0,3.2,1.8,9.186,9.186,0,0,0,4.9-2.683m2.75-1.953c-.436-3.051-1.772-4.088-4.292-3.062l4.292,3.062m-5.992-3.99c-.561-2.56-1.8-3.442-4.779-2.141l4.779,2.141" transform="translate(-280.814 -20.704)" fill="#FE4B00"/>
      </g>
    </g>
    <path id="Path_713" data-name="Path 713" d="M27,1A26.007,26.007,0,0,0,16.88,50.957,26.007,26.007,0,0,0,37.12,3.043,25.836,25.836,0,0,0,27,1m0-1A27,27,0,1,1,0,27,27,27,0,0,1,27,0Z" transform="translate(877 -16893.406)" fill="#FE4B00"/>
  </g>
</svg>
