<svg xmlns="http://www.w3.org/2000/svg" width="54" height="54" viewBox="0 0 54 54">
  <g id="Panair_dhe_Ekspozite-white" data-name="Panair dhe Ekspozite-white" transform="translate(-1121 17025.406)">
    <path id="Path_711" data-name="Path 711" d="M27,1A26.007,26.007,0,0,0,16.88,50.957,26.007,26.007,0,0,0,37.12,3.043,25.836,25.836,0,0,0,27,1m0-1A27,27,0,1,1,0,27,27,27,0,0,1,27,0Z" transform="translate(1121 -17025.406)" fill="#FE4B00"/>
    <g id="Group_918" data-name="Group 918" transform="translate(-2)">
      <path id="Subtraction_3" data-name="Subtraction 3" d="M23.76,27.689l-6.788,0a1.8,1.8,0,0,1-1.935-1.941q0-.776,0-1.552l.177.039.041.009c.533.116,1.085.236,1.641.342a2.828,2.828,0,0,0,.523.05,2.149,2.149,0,0,0,1.724-.8,2.334,2.334,0,0,0,.393-2.019c-.03-.13-.059-.259-.087-.389-.095-.43-.2-.918-.357-1.417a.905.905,0,0,1,.015-.681c.179-.438.34-.893.493-1.39H32.493v.417q0,3.681,0,7.361a1.8,1.8,0,0,1-1.944,1.967ZM33.11,17.38H19.762l0-.006,0-.006a3.106,3.106,0,0,0,.112-.975H33.041a1.508,1.508,0,0,1,.258.016.454.454,0,0,1,.419.482.465.465,0,0,1-.428.479A1.032,1.032,0,0,1,33.11,17.38ZM28.5,15.832H19.783a2.079,2.079,0,0,0-.111-.289,6.3,6.3,0,0,1-.321-.815,4.87,4.87,0,0,1,2.014-2.186.418.418,0,0,1,.21-.07.384.384,0,0,1,.241.107,3.1,3.1,0,0,0,1.949.716,3.2,3.2,0,0,0,1.969-.711A.5.5,0,0,1,26,12.491a.151.151,0,0,1,.072.015,4.725,4.725,0,0,1,2.435,3.184.216.216,0,0,1,0,.08c0,.017,0,.037-.006.061Zm3.235-.015h-1V6.463h1v9.353Zm-7.968-3.08h0A2.5,2.5,0,1,1,25.557,12,2.512,2.512,0,0,1,23.763,12.737ZM15.8,8.8h0V6.464h1V8.581c-.249.044-.623.113-1,.214Zm7.975-2.9H15.788A1.822,1.822,0,0,1,13.8,3.923V3.516c0-.533,0-1.084,0-1.628A1.793,1.793,0,0,1,15.686,0q1.841,0,3.683,0H31.743a1.8,1.8,0,0,1,1.985,1.97c0,.584,0,1.273,0,1.961A1.827,1.827,0,0,1,31.771,5.9Z" transform="translate(1130.234 -17012.25)" fill="#FE4B00" stroke="rgba(0,0,0,0)" stroke-miterlimit="10" stroke-width="1"/>
      <g id="Group_917" data-name="Group 917" transform="translate(1132.118 -17002.023)">
        <path id="Path_706" data-name="Path 706" d="M437.471.179c.984.212,2.036.45,3.094.657a1.933,1.933,0,0,0,.8-.019C442.38.573,443.383.285,444.4.042a1.959,1.959,0,0,1,.8,0,7.7,7.7,0,0,1,1.389.365,6.145,6.145,0,0,0,4.256.06,9.019,9.019,0,0,1,1.2-.27c.684-.116,1.138.314.9.949a6.343,6.343,0,0,0,.251,5.2,1.23,1.23,0,0,1,0,.781,16.2,16.2,0,0,1-.6,1.8,2.393,2.393,0,0,0-.058,1.694c.173.554.285,1.128.415,1.7.156.677-.211,1.085-.9.954-1.025-.2-2.041-.442-3.065-.644a1.663,1.663,0,0,0-.7.016c-1.014.249-2.017.539-3.033.778a2.267,2.267,0,0,1-.9,0,7.305,7.305,0,0,1-1.388-.365,5.981,5.981,0,0,0-4.153-.058,9.124,9.124,0,0,1-1.254.273c-.7.118-1.064-.25-.915-.947.162-.753.37-1.5.528-2.249a1.455,1.455,0,0,0-.031-.691c-.229-.753-.512-1.489-.732-2.244a2.772,2.772,0,0,1-.01-.789.353.353,0,0,1,.042-.148,5.907,5.907,0,0,0,.241-4.939c-.251-.68.091-1.111.784-1.08m7.294,10.293h5.4c.751,0,.77-.019.77-.793q0-2.958,0-5.914c0-.732-.035-.77-.743-.77h-10.8c-.666,0-.712.046-.713.691q0,3.06,0,6.12c0,.621.047.665.683.666q2.7,0,5.4,0" transform="translate(-436.378 0)" fill="#FE4B00"/>
        <path id="Path_707" data-name="Path 707" d="M452.065,17.928l-1.077-2.738c-.391-.995-.442-1.006-1.223-.312q-1.441,1.282-2.887,2.559c-.137.121-.282.234-.483.4V12.269h10.75v5.342c-.71-.675-1.437-1.364-2.162-2.056-.136-.13-.268-.266-.4-.405-.287-.313-.518-.251-.738.084-.573.874-1.154,1.743-1.785,2.693" transform="translate(-443.34 -8.552)" fill="#FE4B00"/>
        <path id="Path_708" data-name="Path 708" d="M451.656,22.368l1.169,2.94h-4.5l3.334-2.94" transform="translate(-444.699 -15.581)" fill="#FE4B00"/>
        <path id="Path_709" data-name="Path 709" d="M467.083,26.806l1.529-2.3,2.42,2.3Z" transform="translate(-457.767 -17.071)" fill="#FE4B00"/>
      </g>
    </g>
  </g>
</svg>
