<svg xmlns="http://www.w3.org/2000/svg" width="116.445" height="199.422" viewBox="0 0 116.445 199.422">
  <path id="nr2" d="M1497.9,2828.954H1382v-31.28l.2-.236,53.127-64.082c.8-.959,1.6-1.909,2.452-2.915,5.316-6.3,11.341-13.445,15.911-21.009,5.2-8.61,7.731-16.463,7.731-24.006a26.606,26.606,0,0,0-2.551-11.949,20.569,20.569,0,0,0-6.113-7.329,24.578,24.578,0,0,0-14.037-4.793,33.8,33.8,0,0,0-8.32.916,20.056,20.056,0,0,0-8.013,3.954,21.08,21.08,0,0,0-6.095,8.908,45.7,45.7,0,0,0-2.465,16.043v21.664h-32.372v-23.033a87.241,87.241,0,0,1,1.721-17.824,60.672,60.672,0,0,1,4.693-14.014,47.36,47.36,0,0,1,15.409-18.286,54.494,54.494,0,0,1,18.45-8.235,67.691,67.691,0,0,1,41.388,3.025,53.485,53.485,0,0,1,24.708,21.066,54.647,54.647,0,0,1,4.54,9.079,52.744,52.744,0,0,1,3.618,18.891,59.537,59.537,0,0,1-6.8,28.209c-4.181,8.142-10.073,15.715-16.311,23.732-.916,1.178-1.864,2.4-2.812,3.623l-44.948,58.057h40.412v-26.017H1497.9Zm-114.2-1.7h112.5v-54.44h-28.972v26.017h-45.578l47.069-60.8c.949-1.229,1.9-2.448,2.815-3.627,6.456-8.3,12.032-15.464,16.141-23.465a57.9,57.9,0,0,0,6.608-27.432,51.03,51.03,0,0,0-3.5-18.276,52.952,52.952,0,0,0-4.4-8.8,51.788,51.788,0,0,0-23.93-20.4,66,66,0,0,0-40.315-2.94,52.812,52.812,0,0,0-17.878,7.974,45.68,45.68,0,0,0-14.86,17.64,58.97,58.97,0,0,0-4.559,13.621,85.542,85.542,0,0,0-1.684,17.475v21.333h28.972v-19.964a47.355,47.355,0,0,1,2.575-16.647,22.752,22.752,0,0,1,6.6-9.611,21.742,21.742,0,0,1,8.684-4.3,35.457,35.457,0,0,1,8.736-.968,26.365,26.365,0,0,1,15.059,5.134,22.255,22.255,0,0,1,6.613,7.93,28.282,28.282,0,0,1,2.729,12.707c0,7.863-2.609,16-7.976,24.885-4.639,7.678-10.71,14.875-16.067,21.226-.847,1-1.647,1.953-2.445,2.906l-52.929,63.843Z" transform="translate(-1381.454 -2629.532)" fill="#ba8cfd"/>
</svg>
