<svg xmlns="http://www.w3.org/2000/svg" width="117.134" height="203.804" viewBox="0 0 117.134 203.804">
  <g id="nr3" transform="translate(-490.718 -3037.233)">
    <path id="Path_321" data-name="Path 321" d="M549.767,3241.037a61.417,61.417,0,0,1-23.742-4.448,50.936,50.936,0,0,1-17.464-12.044,57.435,57.435,0,0,1-8.549-11.772A69.948,69.948,0,0,1,494.291,3199a85.143,85.143,0,0,1-3.013-15.1,98.065,98.065,0,0,1-.418-15.78l.043-.805H523.22l.011.839a118.573,118.573,0,0,0,1.035,15.562A43.786,43.786,0,0,0,528,3196.85a20.971,20.971,0,0,0,7.914,8.983,21.768,21.768,0,0,0,6.05,2.492,32.11,32.11,0,0,0,7.8.887,21.914,21.914,0,0,0,10.677-2.569,21.087,21.087,0,0,0,7.276-6.746c3.592-5.278,5.57-12.561,5.57-20.506a43.251,43.251,0,0,0-1.818-13.26,21.284,21.284,0,0,0-14.552-14.508,43.2,43.2,0,0,0-13.128-1.785c-.283,0-.573,0-.86.006l-.861.011v-26.072l.838-.012c9.5-.138,16.292-2.235,20.758-6.412,4.633-4.333,6.885-11,6.885-20.4a44.687,44.687,0,0,0-1.232-10.871,25.971,25.971,0,0,0-3.948-8.865c-3.9-5.421-9.884-8.169-17.795-8.169-8.316,0-14.1,2.835-17.692,8.667a29.787,29.787,0,0,0-3.654,10.167,72.18,72.18,0,0,0-1.08,13.453v14.543H492.776v-9.34a120.706,120.706,0,0,1,1.6-20.3,79.581,79.581,0,0,1,4.405-16.01,52.476,52.476,0,0,1,14.765-21.058,49.379,49.379,0,0,1,18.431-9.645,61.931,61.931,0,0,1,16.964-2.3,57.813,57.813,0,0,1,15.462,2.313,58.444,58.444,0,0,1,18.553,8.907,50.636,50.636,0,0,1,15.617,18.48c4.338,8.69,6.538,19.07,6.538,30.85a56.692,56.692,0,0,1-1.86,14.653,48.31,48.31,0,0,1-4.687,11.477,42.353,42.353,0,0,1-6.166,8.31,32.975,32.975,0,0,1-5.59,4.715,42.069,42.069,0,0,1,15.929,18.1,52.247,52.247,0,0,1,3.877,11.94,66.171,66.171,0,0,1,1.236,12.965,73.08,73.08,0,0,1-4.3,25.538,54.464,54.464,0,0,1-12.033,19.249,52.089,52.089,0,0,1-18.406,12.114A63.719,63.719,0,0,1,549.767,3241.037Zm-57.249-72.023a96.131,96.131,0,0,0,.45,14.7,83.43,83.43,0,0,0,2.952,14.8,68.244,68.244,0,0,0,5.581,13.436,55.73,55.73,0,0,0,8.294,11.424,49.247,49.247,0,0,0,16.884,11.645,59.732,59.732,0,0,0,23.088,4.317,62.03,62.03,0,0,0,22.728-4.079,50.4,50.4,0,0,0,17.811-11.719,52.772,52.772,0,0,0,11.655-18.654,71.389,71.389,0,0,0,4.191-24.945,64.473,64.473,0,0,0-1.2-12.631,50.55,50.55,0,0,0-3.748-11.551,40.4,40.4,0,0,0-16-17.81l-.413-.248v-1.508l.409-.248a36.394,36.394,0,0,0,11.889-12.874A46.6,46.6,0,0,0,601.611,3112a54.993,54.993,0,0,0,1.8-14.213c0-11.514-2.14-21.638-6.359-30.091a48.955,48.955,0,0,0-15.1-17.865,56.749,56.749,0,0,0-18.016-8.645,56.07,56.07,0,0,0-15-2.248,60.226,60.226,0,0,0-16.5,2.231,47.69,47.69,0,0,0-17.8,9.311,50.8,50.8,0,0,0-14.281,20.388,77.883,77.883,0,0,0-4.309,15.667,119.007,119.007,0,0,0-1.578,20.017v7.64h28.972v-12.843a73.836,73.836,0,0,1,1.11-13.771,31.438,31.438,0,0,1,3.876-10.74,18.727,18.727,0,0,1,7.492-7.017,25.511,25.511,0,0,1,11.648-2.459,26.238,26.238,0,0,1,11.487,2.382,20.232,20.232,0,0,1,7.689,6.495,27.659,27.659,0,0,1,4.216,9.441,46.382,46.382,0,0,1,1.284,11.287c0,9.889-2.428,16.967-7.423,21.639-4.653,4.352-11.547,6.6-21.057,6.853v22.685h.021a44.876,44.876,0,0,1,13.649,1.867,22.977,22.977,0,0,1,15.648,15.6,44.928,44.928,0,0,1,1.9,13.786c0,8.283-2.083,15.906-5.864,21.463a22.77,22.77,0,0,1-7.863,7.28,23.593,23.593,0,0,1-11.5,2.779,33.81,33.81,0,0,1-8.214-.939,23.457,23.457,0,0,1-6.522-2.69,21.252,21.252,0,0,1-4.97-4.217,25.6,25.6,0,0,1-3.582-5.465,45.424,45.424,0,0,1-3.9-13.642,117.136,117.136,0,0,1-1.04-14.946Z" fill="#ba8cfd"/>
  </g>
</svg>
