<svg xmlns="http://www.w3.org/2000/svg" width="118.634" height="203.804" viewBox="0 0 118.634 203.804">
  <g id="nr6" transform="translate(-1351.023 -3527.664)">
    <path id="Path_322" data-name="Path 322" d="M1408.011,3731.468a50.3,50.3,0,0,1-10.292-1.088,55.786,55.786,0,0,1-10.131-3.172,59.411,59.411,0,0,1-9.6-5.122,60.625,60.625,0,0,1-8.7-6.944,59.055,59.055,0,0,1-13.2-18.841,60.534,60.534,0,0,1-5.07-24.562v-78.87a83.989,83.989,0,0,1,4.794-29.3,55.725,55.725,0,0,1,12.845-20.323,51.892,51.892,0,0,1,18.494-11.789,61.47,61.47,0,0,1,21.677-3.794c17.39,0,31.967,5.944,42.154,17.189a54.757,54.757,0,0,1,11.063,18.965,71.733,71.733,0,0,1,3.774,23.574v.85h-32.357l-.014-.835a42.919,42.919,0,0,0-1.512-10.975,26.162,26.162,0,0,0-4.3-8.854c-4.132-5.368-10.275-8.089-18.258-8.089a21.238,21.238,0,0,0-9.371,2.041,20.222,20.222,0,0,0-7.5,6.407,33.168,33.168,0,0,0-5.062,11.362,68.656,68.656,0,0,0-1.861,16.857v20.894a51.614,51.614,0,0,1,14.041-8.233,48.773,48.773,0,0,1,35.991.126,50.328,50.328,0,0,1,16.808,10.946,54.231,54.231,0,0,1,12.407,19.016,75.324,75.324,0,0,1,4.826,27.632c0,19.316-5.474,35.53-15.831,46.888a52.344,52.344,0,0,1-19.361,13.323A70.729,70.729,0,0,1,1408.011,3731.468Zm.822-202.1a59.773,59.773,0,0,0-21.079,3.686,50.2,50.2,0,0,0-17.893,11.4,54.043,54.043,0,0,0-12.45,19.71,82.306,82.306,0,0,0-4.687,28.706v78.87a58.844,58.844,0,0,0,4.925,23.877,57.361,57.361,0,0,0,12.818,18.3,58.911,58.911,0,0,0,8.454,6.749,57.708,57.708,0,0,0,9.325,4.976,54.072,54.072,0,0,0,9.821,3.075,48.616,48.616,0,0,0,9.943,1.052,69.048,69.048,0,0,0,25.82-4.6,50.661,50.661,0,0,0,18.739-12.891c10.066-11.04,15.387-26.857,15.387-45.743a73.638,73.638,0,0,0-4.708-27.01,52.544,52.544,0,0,0-12.017-18.426,48.635,48.635,0,0,0-16.243-10.578,47.075,47.075,0,0,0-34.748-.122,50.118,50.118,0,0,0-14.946,9.124l-1.411,1.24v-24.61a70.335,70.335,0,0,1,1.914-17.279,34.843,34.843,0,0,1,5.335-11.941,21.9,21.9,0,0,1,8.133-6.935,22.922,22.922,0,0,1,10.114-2.212,27.431,27.431,0,0,1,11.608,2.338,21.336,21.336,0,0,1,8,6.414,27.846,27.846,0,0,1,4.59,9.426,43.923,43.923,0,0,1,1.556,10.576h28.989a69.668,69.668,0,0,0-3.676-22.166,53.073,53.073,0,0,0-10.717-18.382C1439.871,3535.115,1425.73,3529.364,1408.833,3529.364Zm1.644,171.98a23.292,23.292,0,0,1-10.048-2.277,25.824,25.824,0,0,1-8.5-6.541,31.51,31.51,0,0,1-5.864-10.354,44.217,44.217,0,0,1,0-27.437,31.508,31.508,0,0,1,5.864-10.354,25.824,25.824,0,0,1,8.5-6.541,23.292,23.292,0,0,1,10.048-2.277,22.7,22.7,0,0,1,9.893,2.279,25.75,25.75,0,0,1,8.416,6.542,31.677,31.677,0,0,1,5.832,10.353,44.3,44.3,0,0,1,0,27.435,31.675,31.675,0,0,1-5.832,10.353,25.75,25.75,0,0,1-8.416,6.542A22.7,22.7,0,0,1,1410.477,3701.344Zm0-64.082a21.607,21.607,0,0,0-9.32,2.113,24.133,24.133,0,0,0-7.941,6.116,29.814,29.814,0,0,0-5.544,9.8,42.521,42.521,0,0,0,0,26.324,29.816,29.816,0,0,0,5.544,9.8,24.133,24.133,0,0,0,7.941,6.116,21.607,21.607,0,0,0,9.32,2.113,21.01,21.01,0,0,0,9.158-2.111,24.068,24.068,0,0,0,7.861-6.115,29.991,29.991,0,0,0,5.516-9.8,42.6,42.6,0,0,0,0-26.325,29.991,29.991,0,0,0-5.516-9.8,24.068,24.068,0,0,0-7.861-6.115A21.01,21.01,0,0,0,1410.477,3637.262Z" fill="#ba8cfd"/>
  </g>
</svg>
