<svg xmlns="http://www.w3.org/2000/svg" width="215.66" height="219.925" viewBox="0 0 215.66 219.925">
  <path id="Path_537" data-name="Path 537" d="M1206.573,5757.465h59.658v5.5c0,8.074,0,8.389,14.494,25.9,2.541,3.068,5.33,6.442,8.387,10.217l73.463,78.908V5769.423h59.658V5977.39H1214.266v-59.658h103.8l-73.447-78.909-1.246-1.429c-3.194-3.949-5.986-7.323-8.517-10.381-16.458-19.884-28.283-34.171-28.283-64.048Zm48.891,11h-37.735c1.3,22.175,10.683,33.511,25.51,51.424,2.648,3.2,5.468,6.607,8.565,10.442l.993,1.137,90.535,97.263H1225.266v37.658h185.967V5780.423h-37.658v125.529l-92.763-99.66c-3.277-4.026-6.042-7.37-8.56-10.411C1259.78,5780.812,1256.3,5776.292,1255.464,5768.465Z" transform="translate(-1206.573 -5757.465)" fill="#fdbcb8"/>
</svg>
