<svg xmlns="http://www.w3.org/2000/svg" xmlns:xlink="http://www.w3.org/1999/xlink" width="1952.41" height="681.5" viewBox="0 0 1952.41 681.5">
  <defs>
    <clipPath id="clip-path">
      <rect id="Rectangle_566" data-name="Rectangle 566" width="1952.402" height="681.493" transform="translate(1013.554 2153.543)" fill="none"/>
    </clipPath>
    <clipPath id="clip-path-2">
      <rect id="Rectangle_568" data-name="Rectangle 568" width="1952.41" height="681.5" transform="translate(1013.55 2153.54)" fill="none"/>
    </clipPath>
  </defs>
  <g id="Group_800" data-name="Group 800" transform="translate(4722.59 7247.46)">
    <g id="Group_797" data-name="Group 797" transform="translate(-5736.14 -9401)">
      <rect id="Rectangle_564" data-name="Rectangle 564" width="1952.403" height="681.494" transform="translate(1013.554 2153.542)" fill="#fe4b00"/>
    </g>
    <g id="Group_798" data-name="Group 798" transform="translate(-5736.14 -9401)">
      <g id="Group_575" data-name="Group 575" clip-path="url(#clip-path)">
        <path id="Path_375" data-name="Path 375" d="M1074.359,2105.045h149.058v-34.717H1074.359a64.764,64.764,0,0,0-64.692,64.692v104.829a64.765,64.765,0,0,0,64.692,64.693h.2c19.9,0,29.138-7.644,43.118-19.215,2.213-1.832,4.658-3.855,7.413-6.08l.474-.383,61.607-57.344v83.653h34.718V2164.638H1081.355v34.718h78.674l-57.23,53.268c-2.681,2.171-5.076,4.152-7.257,5.958-12.948,10.717-13.929,11.242-20.982,11.242h-.2a30.009,30.009,0,0,1-29.975-29.975V2135.02a30.009,30.009,0,0,1,29.975-29.975" fill="#fec8c5"/>
        <path id="Path_376" data-name="Path 376" d="M1326.776,1897.579h149.058v-34.717H1326.776a64.764,64.764,0,0,0-64.692,64.692v104.829a64.765,64.765,0,0,0,64.692,64.693h.2c19.9,0,29.138-7.644,43.118-19.215,2.213-1.832,4.658-3.855,7.413-6.08l.474-.383,61.607-57.344v83.654h34.718V1957.172H1333.772v34.718h78.674l-57.23,53.268c-2.681,2.171-5.076,4.153-7.257,5.958-12.948,10.717-13.929,11.242-20.982,11.242h-.2a30.009,30.009,0,0,1-29.975-29.975V1927.554a30.009,30.009,0,0,1,29.975-29.975" fill="#fec8c5"/>
        <path id="Path_377" data-name="Path 377" d="M1579.193,1690.113h149.058V1655.4H1579.193a64.765,64.765,0,0,0-64.692,64.692v104.829a64.765,64.765,0,0,0,64.692,64.693h.2c19.9,0,29.138-7.644,43.118-19.214,2.213-1.833,4.658-3.855,7.413-6.081l.474-.382,61.607-57.345v83.654h34.718V1749.707H1586.189v34.717h78.674l-57.23,53.268c-2.681,2.171-5.076,4.153-7.257,5.958-12.948,10.718-13.929,11.243-20.982,11.243h-.2a30.009,30.009,0,0,1-29.975-29.976V1720.088a30.009,30.009,0,0,1,29.975-29.975" fill="#fec8c5"/>
        <path id="Path_378" data-name="Path 378" d="M1831.61,1482.647h149.058v-34.716H1831.61a64.764,64.764,0,0,0-64.692,64.692v104.829a64.764,64.764,0,0,0,64.692,64.692h.2c19.9,0,29.138-7.644,43.118-19.214,2.213-1.832,4.658-3.855,7.413-6.08l.474-.383,61.607-57.344v83.653h34.718V1542.241H1838.606v34.717h78.674l-57.23,53.269c-2.681,2.17-5.076,4.152-7.257,5.958-12.948,10.717-13.929,11.242-20.982,11.242h-.2a30.009,30.009,0,0,1-29.975-29.975V1512.623a30.01,30.01,0,0,1,29.975-29.976" fill="#fec8c5"/>
        <path id="Path_379" data-name="Path 379" d="M2084.026,1275.182h149.058v-34.717H2084.026a64.765,64.765,0,0,0-64.692,64.692v104.829a64.765,64.765,0,0,0,64.692,64.692h.2c19.9,0,29.138-7.643,43.118-19.214,2.213-1.832,4.658-3.855,7.413-6.08l.474-.383,61.607-57.344v83.653h34.718V1334.775H2091.022v34.718H2169.7l-57.23,53.268c-2.681,2.171-5.076,4.152-7.257,5.958-12.948,10.717-13.929,11.242-20.982,11.242h-.2a30.009,30.009,0,0,1-29.975-29.975V1305.157a30.009,30.009,0,0,1,29.975-29.975" fill="#fec8c5"/>
        <path id="Path_380" data-name="Path 380" d="M880.725,2651.372h149.058v-34.717H880.725a64.764,64.764,0,0,0-64.692,64.692v104.829a64.765,64.765,0,0,0,64.692,64.693h.2c19.9,0,29.138-7.644,43.118-19.215,2.213-1.832,4.658-3.855,7.413-6.08l.474-.383,61.607-57.344V2851.5h34.718V2710.965H887.721v34.718H966.4l-57.23,53.268c-2.681,2.171-5.076,4.152-7.257,5.958-12.948,10.717-13.929,11.242-20.982,11.242h-.2a30.009,30.009,0,0,1-29.975-29.975V2681.347a30.009,30.009,0,0,1,29.975-29.975" fill="#fec8c5"/>
        <path id="Path_381" data-name="Path 381" d="M1133.141,2443.906H1282.2v-34.717H1133.141a64.764,64.764,0,0,0-64.692,64.692V2578.71a64.765,64.765,0,0,0,64.692,64.693h.2c19.9,0,29.138-7.644,43.118-19.215,2.213-1.832,4.658-3.855,7.413-6.08l.474-.383,61.607-57.344v83.653h34.718V2503.5H1140.137v34.718h78.674l-57.23,53.268c-2.681,2.171-5.076,4.152-7.257,5.958-12.948,10.717-13.929,11.242-20.982,11.242h-.2a30.009,30.009,0,0,1-29.975-29.975V2473.881a30.009,30.009,0,0,1,29.975-29.975" fill="#fec8c5"/>
        <path id="Path_382" data-name="Path 382" d="M1385.558,2236.44h149.058v-34.717H1385.558a64.764,64.764,0,0,0-64.692,64.692v104.829a64.765,64.765,0,0,0,64.692,64.693h.2c19.9,0,29.138-7.644,43.118-19.215,2.213-1.832,4.658-3.855,7.413-6.08l.474-.383,61.607-57.344v83.653h34.718V2296.033H1392.554v34.718h78.674L1414,2384.019c-2.681,2.171-5.076,4.152-7.257,5.958-12.948,10.717-13.929,11.242-20.982,11.242h-.2a30.009,30.009,0,0,1-29.975-29.975V2266.415a30.009,30.009,0,0,1,29.975-29.975" fill="#fec8c5"/>
        <path id="Path_383" data-name="Path 383" d="M1637.975,2028.974h149.058v-34.717H1637.975a64.764,64.764,0,0,0-64.692,64.692v104.829a64.765,64.765,0,0,0,64.692,64.693h.2c19.9,0,29.138-7.644,43.118-19.215,2.213-1.832,4.658-3.855,7.413-6.08l.474-.383,61.607-57.344V2229.1h34.718V2088.567H1644.971v34.718h78.674l-57.23,53.268c-2.681,2.171-5.076,4.153-7.257,5.958-12.948,10.718-13.929,11.242-20.982,11.242h-.2A30.009,30.009,0,0,1,1608,2163.778V2058.949a30.009,30.009,0,0,1,29.975-29.975" fill="#fec8c5"/>
        <path id="Path_384" data-name="Path 384" d="M1890.392,1821.508H2039.45v-34.716H1890.392a64.764,64.764,0,0,0-64.692,64.691v104.83a64.764,64.764,0,0,0,64.692,64.692h.2c19.9,0,29.138-7.644,43.118-19.214,2.213-1.833,4.658-3.855,7.413-6.081l.474-.382,61.607-57.345v83.654h34.718V1881.1H1897.388v34.717h78.674l-57.23,53.268c-2.681,2.171-5.077,4.153-7.257,5.958-12.948,10.718-13.929,11.243-20.982,11.243h-.2a30.009,30.009,0,0,1-29.975-29.975v-104.83a30.009,30.009,0,0,1,29.975-29.975" fill="#fec8c5"/>
        <path id="Path_385" data-name="Path 385" d="M2142.808,1614.042h149.058v-34.716H2142.808a64.765,64.765,0,0,0-64.692,64.692v104.829a64.766,64.766,0,0,0,64.692,64.693h.2c19.9,0,29.138-7.644,43.118-19.215,2.213-1.832,4.658-3.855,7.413-6.08l.474-.383,61.607-57.344v83.653h34.718V1673.636H2149.8v34.718h78.674l-57.23,53.268c-2.681,2.17-5.076,4.152-7.257,5.958-12.948,10.717-13.929,11.242-20.982,11.242h-.2a30.009,30.009,0,0,1-29.975-29.975V1644.018a30.01,30.01,0,0,1,29.975-29.976" fill="#fec8c5"/>
        <path id="Path_386" data-name="Path 386" d="M2395.225,1406.577h149.058V1371.86H2395.225a64.765,64.765,0,0,0-64.692,64.692v104.829a64.765,64.765,0,0,0,64.692,64.692h.2c19.9,0,29.138-7.643,43.118-19.214,2.213-1.832,4.658-3.855,7.413-6.08l.474-.383,61.607-57.344V1606.7h34.718V1466.17H2402.221v34.718H2480.9l-57.23,53.268c-2.681,2.171-5.076,4.152-7.257,5.958-12.948,10.717-13.929,11.242-20.982,11.242h-.2a30.009,30.009,0,0,1-29.975-29.975V1436.552a30.009,30.009,0,0,1,29.975-29.975" fill="#fec8c5"/>
        <path id="Path_387" data-name="Path 387" d="M939.507,2990.232h149.058v-34.716H939.507a64.764,64.764,0,0,0-64.692,64.692v104.829a64.765,64.765,0,0,0,64.692,64.692h.2c19.9,0,29.138-7.644,43.118-19.214,2.213-1.832,4.658-3.856,7.413-6.081l.474-.382,61.607-57.344v83.653h34.718V3049.826H946.5v34.717h78.674l-57.23,53.269c-2.681,2.17-5.076,4.152-7.257,5.958-12.948,10.717-13.929,11.241-20.982,11.241h-.2a30.008,30.008,0,0,1-29.975-29.974V3020.208a30.01,30.01,0,0,1,29.975-29.976" fill="#fec8c5"/>
        <path id="Path_388" data-name="Path 388" d="M1191.923,2782.767h149.058V2748.05H1191.923a64.764,64.764,0,0,0-64.692,64.692v104.829a64.765,64.765,0,0,0,64.692,64.693h.2c19.9,0,29.138-7.644,43.118-19.215,2.213-1.832,4.658-3.855,7.413-6.08l.474-.383,61.607-57.344V2982.9h34.718V2842.36H1198.919v34.718h78.674l-57.23,53.268c-2.681,2.171-5.076,4.152-7.257,5.958-12.948,10.717-13.929,11.242-20.982,11.242h-.2a30.009,30.009,0,0,1-29.975-29.975V2812.742a30.009,30.009,0,0,1,29.975-29.975" fill="#fec8c5"/>
        <path id="Path_389" data-name="Path 389" d="M1444.34,2575.3H1593.4v-34.717H1444.34a64.764,64.764,0,0,0-64.692,64.692V2710.1a64.765,64.765,0,0,0,64.692,64.693h.2c19.9,0,29.138-7.644,43.118-19.215,2.213-1.832,4.658-3.855,7.413-6.08l.474-.383,61.607-57.344v83.653h34.718V2634.894H1451.336v34.718h78.674l-57.23,53.268c-2.681,2.171-5.076,4.152-7.257,5.958-12.948,10.717-13.929,11.242-20.982,11.242h-.2a30.009,30.009,0,0,1-29.975-29.975V2605.276a30.009,30.009,0,0,1,29.975-29.975" fill="#fec8c5"/>
        <path id="Path_390" data-name="Path 390" d="M1696.757,2367.835h149.058v-34.717H1696.757a64.764,64.764,0,0,0-64.692,64.692v104.829a64.765,64.765,0,0,0,64.692,64.693h.2c19.9,0,29.138-7.644,43.118-19.215,2.213-1.832,4.658-3.855,7.413-6.08l.474-.383,61.607-57.344v83.653h34.718V2427.428H1703.753v34.718h78.674l-57.23,53.268c-2.681,2.171-5.076,4.152-7.257,5.958-12.948,10.717-13.929,11.242-20.982,11.242h-.2a30.009,30.009,0,0,1-29.975-29.975V2397.81a30.009,30.009,0,0,1,29.975-29.975" fill="#fec8c5"/>
        <path id="Path_391" data-name="Path 391" d="M1949.174,2160.369h149.057v-34.717H1949.174a64.764,64.764,0,0,0-64.692,64.692v104.829a64.764,64.764,0,0,0,64.692,64.693h.2c19.9,0,29.138-7.644,43.118-19.215,2.213-1.832,4.658-3.855,7.413-6.08l.474-.383,61.607-57.344V2360.5h34.718V2219.962H1956.17v34.718h78.674l-57.23,53.268c-2.682,2.171-5.077,4.153-7.257,5.958-12.948,10.718-13.93,11.242-20.982,11.242h-.2a30.009,30.009,0,0,1-29.976-29.975V2190.344a30.01,30.01,0,0,1,29.976-29.975" fill="#fec8c5"/>
        <path id="Path_392" data-name="Path 392" d="M2201.59,1952.9h149.058v-34.716H2201.59a64.765,64.765,0,0,0-64.692,64.691v104.83a64.766,64.766,0,0,0,64.692,64.692h.2c19.9,0,29.138-7.644,43.118-19.214,2.213-1.832,4.658-3.855,7.413-6.081l.474-.382,61.607-57.345v83.654h34.718V2012.5H2208.586v34.717h78.674l-57.23,53.268c-2.681,2.171-5.076,4.153-7.257,5.958-12.948,10.718-13.929,11.243-20.982,11.243h-.2a30.009,30.009,0,0,1-29.975-29.975v-104.83a30.009,30.009,0,0,1,29.975-29.975" fill="#fec8c5"/>
        <path id="Path_393" data-name="Path 393" d="M2454.007,1745.438h149.058v-34.717H2454.007a64.765,64.765,0,0,0-64.692,64.692v104.829a64.766,64.766,0,0,0,64.692,64.693h.2c19.9,0,29.138-7.644,43.118-19.215,2.213-1.832,4.658-3.855,7.413-6.08l.474-.383,61.607-57.344v83.653h34.718V1805.031H2461v34.718h78.674l-57.23,53.268c-2.681,2.171-5.076,4.152-7.257,5.958-12.948,10.717-13.929,11.242-20.982,11.242h-.2a30.009,30.009,0,0,1-29.975-29.975V1775.413a30.009,30.009,0,0,1,29.975-29.975" fill="#fec8c5"/>
        <path id="Path_394" data-name="Path 394" d="M2706.424,1537.972h149.058v-34.717H2706.424a64.765,64.765,0,0,0-64.692,64.692v104.829a64.766,64.766,0,0,0,64.692,64.693h.2c19.9,0,29.138-7.644,43.118-19.215,2.213-1.832,4.658-3.855,7.413-6.08l.474-.383,61.607-57.344V1738.1h34.718V1597.565H2713.42v34.718h78.674l-57.23,53.268c-2.681,2.171-5.076,4.152-7.257,5.958-12.948,10.717-13.929,11.242-20.982,11.242h-.2a30.009,30.009,0,0,1-29.975-29.975V1567.947a30.009,30.009,0,0,1,29.975-29.975" fill="#fec8c5"/>
        <path id="Path_395" data-name="Path 395" d="M998.289,3329.094h149.058v-34.718H998.289a64.765,64.765,0,0,0-64.692,64.693V3463.9a64.764,64.764,0,0,0,64.692,64.692h.2c19.9,0,29.138-7.643,43.118-19.214,2.213-1.832,4.657-3.855,7.413-6.081l.474-.382,61.607-57.344v83.653h34.718V3388.687H1005.285v34.718h78.673l-57.229,53.268c-2.682,2.171-5.076,4.152-7.257,5.957-12.948,10.718-13.929,11.243-20.982,11.243h-.2a30.009,30.009,0,0,1-29.975-29.975V3359.069a30.009,30.009,0,0,1,29.975-29.975" fill="#fec8c5"/>
        <path id="Path_396" data-name="Path 396" d="M1250.7,3121.628h149.058V3086.91H1250.7a64.765,64.765,0,0,0-64.692,64.693v104.829a64.764,64.764,0,0,0,64.692,64.692h.2c19.9,0,29.138-7.643,43.118-19.214,2.213-1.832,4.658-3.855,7.413-6.081l.474-.382,61.607-57.344v83.653h34.718V3181.221H1257.7v34.718h78.674l-57.23,53.268c-2.681,2.171-5.076,4.152-7.257,5.957-12.948,10.718-13.929,11.243-20.982,11.243h-.2a30.009,30.009,0,0,1-29.975-29.975V3151.6a30.009,30.009,0,0,1,29.975-29.975" fill="#fec8c5"/>
        <path id="Path_397" data-name="Path 397" d="M1503.122,2914.162H1652.18v-34.717H1503.122a64.764,64.764,0,0,0-64.692,64.692v104.829a64.764,64.764,0,0,0,64.692,64.692h.2c19.9,0,29.138-7.643,43.118-19.214,2.213-1.832,4.658-3.855,7.413-6.081l.474-.382,61.607-57.344v83.653h34.718V2973.755H1510.118v34.718h78.674l-57.23,53.268c-2.681,2.171-5.076,4.152-7.257,5.958-12.948,10.717-13.929,11.242-20.982,11.242h-.2a30.009,30.009,0,0,1-29.975-29.975V2944.137a30.009,30.009,0,0,1,29.975-29.975" fill="#fec8c5"/>
        <path id="Path_398" data-name="Path 398" d="M1755.539,2706.7H1904.6v-34.717H1755.539a64.764,64.764,0,0,0-64.692,64.692V2841.5a64.765,64.765,0,0,0,64.692,64.693h.2c19.9,0,29.138-7.644,43.118-19.215,2.213-1.832,4.658-3.855,7.413-6.08l.474-.383,61.607-57.344v83.653h34.718V2766.289H1762.535v34.718h78.674l-57.23,53.268c-2.681,2.171-5.076,4.152-7.257,5.958-12.948,10.717-13.929,11.242-20.982,11.242h-.2a30.009,30.009,0,0,1-29.975-29.975V2736.671a30.009,30.009,0,0,1,29.975-29.975" fill="#fec8c5"/>
        <path id="Path_399" data-name="Path 399" d="M2007.956,2499.23h149.057v-34.717H2007.956a64.764,64.764,0,0,0-64.692,64.692v104.829a64.765,64.765,0,0,0,64.692,64.693h.2c19.9,0,29.139-7.644,43.118-19.215,2.214-1.832,4.658-3.855,7.414-6.08l.473-.383,61.608-57.344v83.653h34.718V2558.823H2014.952v34.718h78.673l-57.229,53.268c-2.682,2.171-5.077,4.152-7.257,5.958-12.948,10.717-13.93,11.242-20.983,11.242h-.2a30.009,30.009,0,0,1-29.976-29.975V2529.205a30.009,30.009,0,0,1,29.976-29.975" fill="#fec8c5"/>
        <path id="Path_400" data-name="Path 400" d="M2260.372,2291.764H2409.43v-34.717H2260.372a64.765,64.765,0,0,0-64.692,64.692v104.829a64.766,64.766,0,0,0,64.692,64.693h.2c19.9,0,29.138-7.644,43.118-19.215,2.213-1.832,4.658-3.855,7.413-6.08l.474-.383,61.607-57.344v83.654H2407.9V2351.357H2267.368v34.718h78.674l-57.23,53.268c-2.681,2.171-5.076,4.153-7.257,5.958-12.948,10.718-13.929,11.242-20.982,11.242h-.2a30.009,30.009,0,0,1-29.975-29.975V2321.739a30.009,30.009,0,0,1,29.975-29.975" fill="#fec8c5"/>
        <path id="Path_401" data-name="Path 401" d="M2512.789,2084.3h149.058v-34.716H2512.789a64.765,64.765,0,0,0-64.692,64.691V2219.1a64.766,64.766,0,0,0,64.692,64.692h.2c19.9,0,29.138-7.644,43.118-19.214,2.213-1.832,4.658-3.855,7.413-6.081l.474-.382,61.607-57.345v83.654h34.718V2143.892H2519.785v34.717h78.674l-57.23,53.268c-2.681,2.171-5.076,4.153-7.257,5.958-12.948,10.718-13.929,11.243-20.982,11.243h-.2a30.009,30.009,0,0,1-29.975-29.975v-104.83a30.009,30.009,0,0,1,29.975-29.975" fill="#fec8c5"/>
        <path id="Path_402" data-name="Path 402" d="M2765.206,1876.833h149.058v-34.717H2765.206a64.765,64.765,0,0,0-64.692,64.692v104.829a64.766,64.766,0,0,0,64.692,64.693h.2c19.9,0,29.138-7.644,43.118-19.215,2.213-1.832,4.658-3.855,7.413-6.08l.474-.383,61.607-57.344v83.653h34.718V1936.426H2772.2v34.718h78.674l-57.23,53.268c-2.681,2.171-5.076,4.152-7.257,5.958-12.948,10.717-13.929,11.242-20.982,11.242h-.2a30.009,30.009,0,0,1-29.975-29.975V1906.808a30.009,30.009,0,0,1,29.975-29.975" fill="#fec8c5"/>
        <path id="Path_403" data-name="Path 403" d="M3017.623,1669.367H3166.68V1634.65H3017.623a64.765,64.765,0,0,0-64.693,64.692v104.829a64.766,64.766,0,0,0,64.693,64.693h.2c19.9,0,29.138-7.644,43.118-19.215,2.214-1.832,4.658-3.855,7.413-6.08l.474-.383,61.608-57.344v83.653h34.718V1728.96H3024.618v34.718h78.674l-57.229,53.268c-2.682,2.171-5.077,4.152-7.258,5.958-12.948,10.717-13.929,11.242-20.982,11.242h-.2a30.009,30.009,0,0,1-29.976-29.975V1699.342a30.009,30.009,0,0,1,29.976-29.975" fill="#fec8c5"/>
        <path id="Path_404" data-name="Path 404" d="M1309.487,3460.489h149.058v-34.718H1309.487a64.765,64.765,0,0,0-64.692,64.693v104.829a64.764,64.764,0,0,0,64.692,64.692h.2c19.9,0,29.138-7.643,43.118-19.214,2.213-1.832,4.658-3.855,7.413-6.081l.474-.382,61.607-57.344v83.653h34.718V3520.082H1316.483V3554.8h78.674l-57.23,53.268c-2.681,2.171-5.076,4.152-7.257,5.957-12.948,10.718-13.929,11.243-20.982,11.243h-.2a30.009,30.009,0,0,1-29.975-29.975V3490.464a30.009,30.009,0,0,1,29.975-29.975" fill="#fec8c5"/>
        <path id="Path_405" data-name="Path 405" d="M1561.9,3253.023h149.058V3218.3H1561.9A64.765,64.765,0,0,0,1497.212,3283v104.829a64.764,64.764,0,0,0,64.692,64.692h.2c19.9,0,29.138-7.643,43.118-19.214,2.213-1.832,4.658-3.855,7.413-6.081l.474-.382,61.607-57.344v83.653h34.718V3312.616H1568.9v34.718h78.674l-57.23,53.268c-2.681,2.171-5.076,4.152-7.257,5.957-12.948,10.718-13.929,11.243-20.982,11.243h-.2a30.009,30.009,0,0,1-29.975-29.975V3283a30.009,30.009,0,0,1,29.975-29.975" fill="#fec8c5"/>
        <path id="Path_406" data-name="Path 406" d="M1814.321,3045.557h149.058V3010.84H1814.321a64.764,64.764,0,0,0-64.692,64.692v104.829a64.764,64.764,0,0,0,64.692,64.692h.2c19.9,0,29.138-7.643,43.118-19.214,2.213-1.832,4.658-3.855,7.413-6.081l.474-.382,61.607-57.344v83.653h34.718V3105.151H1821.317v34.717h78.674l-57.23,53.268c-2.681,2.171-5.076,4.152-7.257,5.958-12.948,10.717-13.929,11.242-20.982,11.242h-.2a30.009,30.009,0,0,1-29.975-29.975V3075.532a30.009,30.009,0,0,1,29.975-29.975" fill="#fec8c5"/>
        <path id="Path_407" data-name="Path 407" d="M2066.738,2838.091h149.057v-34.717H2066.738a64.764,64.764,0,0,0-64.692,64.692V2972.9a64.764,64.764,0,0,0,64.692,64.693h.2c19.9,0,29.138-7.644,43.118-19.215,2.214-1.832,4.658-3.855,7.413-6.08l.474-.383,61.608-57.344v83.653h34.718V2897.684H2073.733V2932.4h78.674l-57.23,53.268c-2.681,2.171-5.076,4.152-7.257,5.958-12.948,10.717-13.929,11.242-20.982,11.242h-.2a30.009,30.009,0,0,1-29.976-29.975V2868.066a30.009,30.009,0,0,1,29.976-29.975" fill="#fec8c5"/>
        <path id="Path_408" data-name="Path 408" d="M2319.154,2630.625h149.058v-34.717H2319.154a64.765,64.765,0,0,0-64.692,64.692v104.829a64.766,64.766,0,0,0,64.692,64.693h.2c19.9,0,29.138-7.644,43.118-19.215,2.213-1.832,4.658-3.855,7.413-6.08l.474-.383,61.607-57.344v83.653h34.718V2690.218H2326.15v34.718h78.674l-57.23,53.268c-2.681,2.171-5.076,4.152-7.257,5.958-12.948,10.717-13.929,11.242-20.982,11.242h-.2a30.009,30.009,0,0,1-29.975-29.975V2660.6a30.009,30.009,0,0,1,29.975-29.975" fill="#fec8c5"/>
        <path id="Path_409" data-name="Path 409" d="M2571.571,2423.159h149.058v-34.717H2571.571a64.765,64.765,0,0,0-64.692,64.692v104.829a64.766,64.766,0,0,0,64.692,64.693h.2c19.9,0,29.138-7.644,43.118-19.215,2.213-1.832,4.658-3.855,7.413-6.08l.474-.382,61.607-57.345v83.654H2719.1V2482.752H2578.567v34.718h78.674l-57.23,53.268c-2.681,2.171-5.076,4.153-7.257,5.958-12.948,10.718-13.929,11.242-20.982,11.242h-.2a30.009,30.009,0,0,1-29.975-29.975V2453.134a30.009,30.009,0,0,1,29.975-29.975" fill="#fec8c5"/>
        <path id="Path_410" data-name="Path 410" d="M2823.988,2215.693h149.058v-34.716H2823.988a64.765,64.765,0,0,0-64.692,64.691V2350.5a64.766,64.766,0,0,0,64.692,64.692h.2c19.9,0,29.138-7.644,43.118-19.214,2.213-1.832,4.658-3.855,7.413-6.08l.474-.383,61.607-57.345v83.654h34.718V2275.287H2830.984V2310h78.674l-57.23,53.268c-2.681,2.171-5.076,4.153-7.257,5.958-12.948,10.718-13.929,11.243-20.982,11.243h-.2a30.009,30.009,0,0,1-29.975-29.975v-104.83a30.009,30.009,0,0,1,29.975-29.975" fill="#fec8c5"/>
        <path id="Path_411" data-name="Path 411" d="M3076.405,2008.228h149.057v-34.717H3076.405a64.765,64.765,0,0,0-64.693,64.692v104.829a64.766,64.766,0,0,0,64.693,64.693h.2c19.9,0,29.138-7.644,43.118-19.215,2.214-1.832,4.658-3.855,7.413-6.08l.474-.383,61.608-57.344v83.653h34.718V2067.821H3083.4v34.718h78.674l-57.23,53.268c-2.681,2.171-5.076,4.152-7.257,5.958-12.948,10.717-13.929,11.242-20.982,11.242h-.2a30.009,30.009,0,0,1-29.976-29.975V2038.2a30.009,30.009,0,0,1,29.976-29.975" fill="#fec8c5"/>
        <path id="Path_412" data-name="Path 412" d="M3328.821,1800.762h149.058v-34.717H3328.821a64.765,64.765,0,0,0-64.692,64.692v104.829a64.766,64.766,0,0,0,64.692,64.693h.2c19.9,0,29.138-7.644,43.118-19.215,2.213-1.832,4.658-3.855,7.413-6.08l.474-.383,61.607-57.344v83.653h34.718V1860.355H3335.817v34.718h78.674l-57.23,53.268c-2.681,2.171-5.076,4.152-7.257,5.958-12.948,10.717-13.929,11.242-20.982,11.242h-.2a30.009,30.009,0,0,1-29.975-29.975V1830.737a30.009,30.009,0,0,1,29.975-29.975" fill="#fec8c5"/>
        <path id="Path_413" data-name="Path 413" d="M1620.686,3591.884h149.058v-34.718H1620.686a64.765,64.765,0,0,0-64.692,64.693v104.829a64.764,64.764,0,0,0,64.692,64.692h.2c19.9,0,29.138-7.643,43.118-19.214,2.213-1.832,4.658-3.855,7.413-6.081l.474-.382,61.607-57.344v83.653h34.718V3651.477H1627.682V3686.2h78.674l-57.23,53.268c-2.681,2.171-5.076,4.152-7.257,5.957-12.948,10.718-13.929,11.243-20.982,11.243h-.2a30.009,30.009,0,0,1-29.975-29.975V3621.859a30.009,30.009,0,0,1,29.975-29.975" fill="#fec8c5"/>
        <path id="Path_414" data-name="Path 414" d="M1873.1,3384.418h149.058V3349.7H1873.1a64.765,64.765,0,0,0-64.692,64.693v104.829a64.764,64.764,0,0,0,64.692,64.692h.2c19.9,0,29.138-7.643,43.118-19.214,2.213-1.832,4.658-3.855,7.413-6.081l.474-.382,61.607-57.344v83.653h34.718V3444.011H1880.1v34.718h78.674L1901.543,3532c-2.681,2.171-5.076,4.152-7.257,5.957-12.948,10.718-13.929,11.243-20.982,11.243h-.2a30.009,30.009,0,0,1-29.975-29.975V3414.393a30.009,30.009,0,0,1,29.975-29.975" fill="#fec8c5"/>
        <path id="Path_415" data-name="Path 415" d="M2125.52,3176.952h149.057v-34.718H2125.52a64.766,64.766,0,0,0-64.693,64.693v104.829a64.765,64.765,0,0,0,64.693,64.692h.2c19.9,0,29.138-7.643,43.118-19.214,2.214-1.832,4.658-3.855,7.413-6.081l.474-.382,61.608-57.344v83.653h34.718V3236.545H2132.515v34.718h78.674l-57.23,53.268c-2.681,2.171-5.076,4.152-7.257,5.957-12.948,10.718-13.929,11.243-20.982,11.243h-.2a30.009,30.009,0,0,1-29.976-29.975V3206.927a30.009,30.009,0,0,1,29.976-29.975" fill="#fec8c5"/>
        <path id="Path_416" data-name="Path 416" d="M2377.936,2969.486h149.058v-34.717H2377.936a64.765,64.765,0,0,0-64.692,64.692V3104.29a64.765,64.765,0,0,0,64.692,64.692h.2c19.9,0,29.138-7.643,43.118-19.214,2.213-1.832,4.658-3.855,7.413-6.081l.474-.382,61.607-57.344v83.653h34.718V3029.079H2384.932V3063.8h78.674l-57.23,53.268c-2.681,2.171-5.076,4.152-7.257,5.958-12.948,10.717-13.929,11.242-20.982,11.242h-.2a30.009,30.009,0,0,1-29.975-29.975V2999.461a30.009,30.009,0,0,1,29.975-29.975" fill="#fec8c5"/>
        <path id="Path_417" data-name="Path 417" d="M2630.353,2762.02h149.058V2727.3H2630.353A64.765,64.765,0,0,0,2565.661,2792v104.829a64.766,64.766,0,0,0,64.692,64.693h.2c19.9,0,29.138-7.644,43.118-19.215,2.213-1.832,4.658-3.855,7.413-6.08l.474-.383,61.607-57.344v83.653h34.718V2821.613H2637.349v34.718h78.674l-57.23,53.268c-2.681,2.171-5.076,4.152-7.257,5.958-12.948,10.717-13.929,11.242-20.982,11.242h-.2a30.009,30.009,0,0,1-29.975-29.975V2792a30.009,30.009,0,0,1,29.975-29.975" fill="#fec8c5"/>
        <path id="Path_418" data-name="Path 418" d="M2882.77,2554.554h149.058v-34.717H2882.77a64.765,64.765,0,0,0-64.692,64.692v104.829a64.766,64.766,0,0,0,64.692,64.693h.2c19.9,0,29.138-7.644,43.118-19.215,2.213-1.832,4.658-3.855,7.413-6.08l.474-.382,61.607-57.345v83.654H3030.3V2614.147H2889.766v34.718h78.674l-57.23,53.268c-2.681,2.171-5.076,4.153-7.257,5.958-12.948,10.718-13.929,11.242-20.982,11.242h-.2a30.009,30.009,0,0,1-29.975-29.975V2584.529a30.009,30.009,0,0,1,29.975-29.975" fill="#fec8c5"/>
        <path id="Path_419" data-name="Path 419" d="M3135.187,2347.088h149.057v-34.716H3135.187a64.765,64.765,0,0,0-64.693,64.691v104.83a64.766,64.766,0,0,0,64.693,64.692h.2c19.9,0,29.138-7.644,43.118-19.214,2.214-1.832,4.658-3.855,7.413-6.08l.474-.383L3248,2463.563v83.654h34.718V2406.682H3142.182V2441.4h78.674l-57.23,53.268c-2.681,2.171-5.076,4.153-7.257,5.958-12.948,10.718-13.929,11.243-20.982,11.243h-.2a30.01,30.01,0,0,1-29.976-29.975v-104.83a30.01,30.01,0,0,1,29.976-29.975" fill="#fec8c5"/>
        <path id="Path_420" data-name="Path 420" d="M1931.885,3723.279h149.058v-34.718H1931.885a64.765,64.765,0,0,0-64.692,64.693v104.829a64.764,64.764,0,0,0,64.692,64.692h.2c19.9,0,29.138-7.643,43.118-19.214,2.213-1.832,4.658-3.855,7.413-6.081l.474-.382,61.607-57.344v83.653h34.718V3782.872H1938.881v34.718h78.674l-57.23,53.268c-2.681,2.171-5.076,4.152-7.257,5.957-12.948,10.718-13.929,11.243-20.982,11.243h-.2a30.009,30.009,0,0,1-29.975-29.975V3753.254a30.009,30.009,0,0,1,29.975-29.975" fill="#fec8c5"/>
        <path id="Path_421" data-name="Path 421" d="M2184.3,3515.813h149.057v-34.718H2184.3a64.766,64.766,0,0,0-64.693,64.693v104.829a64.765,64.765,0,0,0,64.693,64.692h.2c19.9,0,29.138-7.643,43.118-19.214,2.213-1.832,4.658-3.855,7.413-6.081l.474-.382,61.608-57.344v83.653h34.718V3575.406H2191.3v34.718h78.674l-57.23,53.268c-2.681,2.171-5.076,4.152-7.257,5.957-12.948,10.718-13.929,11.243-20.982,11.243h-.2a30.009,30.009,0,0,1-29.976-29.975V3545.788a30.009,30.009,0,0,1,29.976-29.975" fill="#fec8c5"/>
        <path id="Path_422" data-name="Path 422" d="M2436.718,3308.347h149.058v-34.718H2436.718a64.766,64.766,0,0,0-64.692,64.693v104.829a64.765,64.765,0,0,0,64.692,64.692h.2c19.9,0,29.138-7.643,43.118-19.214,2.213-1.832,4.658-3.855,7.413-6.081l.474-.382,61.607-57.344v83.653h34.718V3367.94H2443.714v34.718h78.674l-57.23,53.268c-2.681,2.171-5.076,4.152-7.257,5.957-12.948,10.718-13.929,11.243-20.982,11.243h-.2a30.009,30.009,0,0,1-29.975-29.975V3338.322a30.009,30.009,0,0,1,29.975-29.975" fill="#fec8c5"/>
        <path id="Path_423" data-name="Path 423" d="M2689.135,3100.881h149.058v-34.718H2689.135a64.766,64.766,0,0,0-64.692,64.693v104.829a64.765,64.765,0,0,0,64.692,64.692h.2c19.9,0,29.138-7.643,43.118-19.214,2.213-1.832,4.658-3.855,7.413-6.081l.474-.382,61.607-57.344v83.653h34.718V3160.474H2696.131v34.718H2774.8l-57.23,53.268c-2.681,2.171-5.076,4.152-7.257,5.957-12.948,10.718-13.929,11.243-20.982,11.243h-.2a30.009,30.009,0,0,1-29.975-29.975V3130.856a30.009,30.009,0,0,1,29.975-29.975" fill="#fec8c5"/>
        <path id="Path_424" data-name="Path 424" d="M2941.552,2893.415H3090.61V2858.7H2941.552a64.765,64.765,0,0,0-64.692,64.692v104.829a64.765,64.765,0,0,0,64.692,64.692h.2c19.9,0,29.138-7.643,43.118-19.214,2.213-1.832,4.658-3.855,7.413-6.081l.474-.382,61.607-57.344v83.653h34.718V2953.008H2948.548v34.718h78.674l-57.23,53.268c-2.681,2.171-5.076,4.152-7.257,5.958-12.948,10.717-13.929,11.242-20.982,11.242h-.2a30.009,30.009,0,0,1-29.975-29.975V2923.39a30.009,30.009,0,0,1,29.975-29.975" fill="#fec8c5"/>
        <path id="Path_425" data-name="Path 425" d="M3193.969,2685.949h149.057v-34.717H3193.969a64.765,64.765,0,0,0-64.693,64.692v104.829a64.766,64.766,0,0,0,64.693,64.693h.2c19.9,0,29.138-7.644,43.118-19.215,2.213-1.832,4.658-3.855,7.413-6.08l.474-.382,61.607-57.345v83.654H3341.5V2745.542H3200.964v34.718h78.674l-57.23,53.268c-2.681,2.171-5.076,4.153-7.257,5.958-12.948,10.718-13.929,11.243-20.982,11.243h-.2a30.01,30.01,0,0,1-29.976-29.976V2715.924a30.01,30.01,0,0,1,29.976-29.975" fill="#fec8c5"/>
      </g>
    </g>
    <g id="Group_799" data-name="Group 799" transform="translate(-5736.14 -9401)" opacity="0.8">
      <g id="Group_578" data-name="Group 578">
        <g id="Group_577" data-name="Group 577" clip-path="url(#clip-path-2)">
          <rect id="Rectangle_567" data-name="Rectangle 567" width="1952.403" height="681.494" transform="translate(1013.554 2153.542)" fill="#00b907"/>
        </g>
      </g>
    </g>
  </g>
</svg>
